<svg width="20" height="20" viewBox="0 0 20 20" fill="none" xmlns="http://www.w3.org/2000/svg">
<path d="M2.77613 6.47852C2.43164 6.47852 2.13892 6.59862 1.89862 6.83914C1.65832 7.07956 1.53809 7.36798 1.53809 7.70448V12.8731C1.53809 13.2174 1.65828 13.5098 1.89862 13.7503C2.13892 13.9907 2.43147 14.1107 2.77601 14.1107C3.12063 14.1107 3.41107 13.9907 3.64741 13.7503C3.88393 13.5098 4.0021 13.2174 4.0021 12.8731V7.70448C4.0021 7.36786 3.88182 7.07944 3.64152 6.83914C3.40118 6.59875 3.11259 6.47852 2.77613 6.47852Z" fill="#00A88E"/>
<path d="M4.48291 14.7116C4.48291 15.0801 4.61114 15.3926 4.86753 15.6491C5.12395 15.9053 5.43637 16.0335 5.80507 16.0335H6.69454L6.70666 18.7619C6.70666 19.1065 6.82685 19.3988 7.0672 19.6393C7.3075 19.8797 7.59604 19.9999 7.93254 19.9999C8.27725 19.9999 8.56963 19.8797 8.81005 19.6393C9.05048 19.3988 9.17059 19.1065 9.17059 18.7619V16.0335H10.8292V18.7619C10.8292 19.1065 10.9493 19.3988 11.1896 19.6393C11.4302 19.8797 11.7227 19.9999 12.0673 19.9999C12.4116 19.9999 12.7041 19.8797 12.9444 19.6393C13.1847 19.3988 13.3047 19.1065 13.3047 18.7619V16.0335H14.2063C14.5667 16.0335 14.8753 15.9055 15.1316 15.6491C15.3881 15.3926 15.5163 15.0801 15.5163 14.7116V6.70654H4.48291V14.7116Z" fill="#00A88E"/>
<path d="M12.7285 1.83899L13.5816 0.264366C13.6378 0.160213 13.6176 0.0800988 13.5217 0.024065C13.4173 -0.0240541 13.3373 -1.55877e-05 13.2814 0.0962227L12.4158 1.68272C11.6546 1.34618 10.8495 1.17791 10 1.17791C9.15069 1.17791 8.34534 1.34618 7.58406 1.68272L6.71868 0.0962648C6.66277 2.65082e-05 6.58253 -0.024012 6.47837 0.0241071C6.38218 0.0801409 6.36227 0.160255 6.41834 0.264408L7.27173 1.83899C6.40622 2.27964 5.71731 2.89467 5.20433 3.68394C4.69153 4.47325 4.43506 5.3367 4.43506 6.27408H15.5532C15.5532 5.3367 15.2968 4.47321 14.7839 3.68394C14.2709 2.89467 13.5861 2.2796 12.7285 1.83899ZM7.79443 4.12859C7.70236 4.22079 7.59223 4.26684 7.464 4.26684C7.33576 4.26684 7.22765 4.22083 7.13941 4.12859C7.05138 4.03652 7.00722 3.9263 7.00722 3.79811C7.00722 3.66988 7.05138 3.55966 7.13941 3.46747C7.22753 3.37527 7.3358 3.3293 7.464 3.3293C7.59206 3.3293 7.70223 3.37523 7.79443 3.46747C7.88663 3.55966 7.93268 3.66988 7.93268 3.79811C7.93268 3.92635 7.88663 4.03639 7.79443 4.12859ZM12.8608 4.12859C12.7725 4.22079 12.6643 4.26684 12.5361 4.26684C12.4079 4.26684 12.298 4.22083 12.2057 4.12859C12.1135 4.03652 12.0676 3.9263 12.0676 3.79811C12.0676 3.66988 12.1135 3.55966 12.2057 3.46747C12.2979 3.37527 12.4079 3.3293 12.5361 3.3293C12.6643 3.3293 12.7725 3.37523 12.8608 3.46747C12.9487 3.55966 12.993 3.66988 12.993 3.79811C12.993 3.92635 12.9489 4.03639 12.8608 4.12859Z" fill="#00A88E"/>
<path d="M18.1008 6.83307C17.8605 6.59673 17.5681 6.47852 17.2234 6.47852C16.887 6.47852 16.5986 6.59673 16.3583 6.83307C16.1178 7.0695 15.9976 7.36003 15.9976 7.70448V12.8731C15.9976 13.2174 16.1178 13.5098 16.3583 13.7503C16.5986 13.9907 16.887 14.1107 17.2234 14.1107C17.5681 14.1107 17.8605 13.9907 18.1008 13.7503C18.3414 13.5098 18.4615 13.2174 18.4615 12.8731V7.70448C18.4615 7.35998 18.3414 7.06946 18.1008 6.83307Z" fill="#00A88E"/>
</svg>
