<svg width="20" height="20" viewBox="0 0 20 20" fill="none" xmlns="http://www.w3.org/2000/svg">
<path d="M15.4587 10.626C15.4326 8.09154 17.525 6.87867 17.6178 6.81781C16.4426 5.10067 14.6139 4.86447 13.9603 4.83839C12.4055 4.67899 10.9231 5.7542 10.1319 5.7542C9.3436 5.7542 8.12349 4.86012 6.83237 4.88331C5.13407 4.90939 3.57052 5.87157 2.69529 7.39019C0.931777 10.4506 2.24318 14.9833 3.96177 17.4684C4.80223 18.6828 5.80498 20.0463 7.11929 19.9985C8.38577 19.9478 8.86396 19.1783 10.3956 19.1783C11.9273 19.1783 12.3577 19.9985 13.6966 19.9739C15.0602 19.9478 15.9224 18.7349 16.7556 17.5177C17.7206 16.1078 18.1177 14.7413 18.1423 14.6732C18.1104 14.6558 15.4862 13.6516 15.4587 10.626Z" fill="inherit"/>
<path d="M12.9401 3.19374C13.6371 2.34893 14.1095 1.17229 13.9805 0C12.9734 0.0405738 11.7577 0.668019 11.0346 1.51427C10.3868 2.26344 9.82316 3.45892 9.97386 4.60803C11.0954 4.69642 12.2431 4.0371 12.9401 3.19374Z" fill="inherit"/>
</svg>
