<svg width="20" height="20" viewBox="0 0 20 20" fill="none" xmlns="http://www.w3.org/2000/svg">
<path fill-rule="evenodd" clip-rule="evenodd" d="M16.7182 10C16.7182 13.5708 13.7784 16.5 10.1091 16.5C6.43977 16.5 3.5 13.5708 3.5 10C3.5 6.42924 6.43977 3.5 10.1091 3.5C13.7784 3.5 16.7182 6.42924 16.7182 10ZM18.2182 10C18.2182 14.4183 14.5876 18 10.1091 18C5.63056 18 2 14.4183 2 10C2 5.58172 5.63056 2 10.1091 2C14.5876 2 18.2182 5.58172 18.2182 10ZM10.1884 7.74908L11.6893 9.24999H5.71875V10.75H11.6893L10.1884 12.2509L11.2491 13.3116L14.5607 9.99999L11.2491 6.68842L10.1884 7.74908Z" fill="inherit"/>
</svg>
