<svg width="20" height="20" viewBox="0 0 20 20" fill="none" xmlns="http://www.w3.org/2000/svg">
<path fill-rule="evenodd" clip-rule="evenodd" d="M15.5281 8.66305L10.8298 13.3015C9.93029 14.1572 8.51777 14.1573 7.61817 13.3018C7.19266 12.8778 6.95344 12.3017 6.95344 11.701C6.95344 11.0993 7.19387 10.5219 7.62056 10.0977L12.0838 5.63451L13.15 6.70077L8.67718 11.164L8.67458 11.1666C8.53633 11.3088 8.45734 11.4982 8.45377 11.6965L8.45378 11.7016C8.45427 11.9029 8.53462 12.0959 8.67726 12.2381L8.68161 12.2422C8.98265 12.5282 9.45497 12.5282 9.75601 12.2423L14.3994 7.58894C14.8349 7.16534 15.0807 6.58358 15.0807 5.97596C15.0807 5.36766 14.8344 4.78527 14.3979 4.36156L14.3954 4.3592C13.4936 3.50754 12.0838 3.50743 11.182 4.35909L5.82569 9.78516L5.81835 9.79328C4.46407 11.291 4.52176 13.5874 5.94954 15.0152C7.37732 16.443 9.67399 16.5009 11.1717 15.1466L16.3704 9.95757L17.4632 10.968L12.287 16.1442C10.9497 17.4815 9.00049 18.0038 7.17367 17.5143C5.34685 17.0248 3.91994 15.5979 3.43044 13.7711C2.94098 11.9444 3.46345 9.99505 4.80056 8.65773L10.1781 3.32019C11.6766 1.89317 14.0314 1.89327 15.5298 3.32049C16.2446 4.0252 16.6471 4.98711 16.6471 5.99096C16.6471 6.99547 16.2439 7.95821 15.5281 8.66305Z" fill="inherit"/>
</svg>
