<svg width="20" height="20" viewBox="0 0 20 20" fill="none" xmlns="http://www.w3.org/2000/svg">
<path fill-rule="evenodd" clip-rule="evenodd" d="M10.75 4.75006V9.25006H13.75V10.7501H9.25V4.75006H10.75ZM2.785 12.0251C2.725 11.8076 2.6725 11.5901 2.6275 11.3651C2.59463 11.1662 2.48307 10.9889 2.31799 10.8732C2.1529 10.7575 1.94818 10.7131 1.75 10.7501C1.34495 10.826 1.07701 11.2145 1.15 11.6201C1.1974 11.8909 1.26 12.1588 1.3375 12.4226C1.43373 12.7535 1.74312 12.9763 2.0875 12.9626C2.15456 12.9735 2.22294 12.9735 2.29 12.9626C2.68544 12.8402 2.90698 12.4206 2.785 12.0251ZM5.96501 16.3151C5.7729 16.1955 5.58762 16.0653 5.41001 15.9251C5.19967 15.7589 4.91668 15.7176 4.66763 15.8167C4.41859 15.9158 4.24134 16.1403 4.20263 16.4055C4.16393 16.6707 4.26967 16.9364 4.48001 17.1026C4.69402 17.2717 4.91684 17.4294 5.14751 17.5751C5.26822 17.653 5.4088 17.6947 5.55251 17.6951C5.88605 17.6975 6.18116 17.4795 6.27668 17.1599C6.37221 16.8403 6.2452 16.496 5.96501 16.3151V16.3151ZM3.60251 13.8926C3.38504 13.5384 2.92166 13.4276 2.56751 13.6451C2.21335 13.8625 2.10254 14.3259 2.32001 14.6801C2.46251 14.9126 2.61251 15.1376 2.77751 15.3551C2.91915 15.5439 3.14144 15.6551 3.37751 15.6551C3.53893 15.6572 3.69675 15.6073 3.82751 15.5126C3.98664 15.3932 4.09184 15.2155 4.11997 15.0186C4.1481 14.8217 4.09685 14.6217 3.97751 14.4626C3.84133 14.2802 3.7161 14.0898 3.60251 13.8926V13.8926ZM8.46999 17.3426C8.24715 17.2965 8.02685 17.239 7.80999 17.1701C7.41235 17.0479 6.99094 17.2712 6.86874 17.6688C6.74655 18.0665 6.96985 18.4879 7.36749 18.6101C7.62999 18.6851 7.89249 18.7526 8.16249 18.8126H8.31249C8.67456 18.8199 8.99014 18.5674 9.06249 18.2126C9.13759 17.8188 8.88984 17.4357 8.49999 17.3426H8.46999ZM10 1.00006C6.97632 0.988887 4.15297 2.51068 2.5 5.04256V3.25006H1V7.75006H5.5V6.25006H3.5125C5.33284 3.09715 9.15457 1.7069 12.5753 2.95325C15.9959 4.1996 18.0275 7.72255 17.3929 11.3075C16.7582 14.8924 13.6407 17.5038 10 17.5001V19.0001C14.9706 19.0001 19 14.9706 19 10.0001C19 5.0295 14.9706 1.00006 10 1.00006Z" fill="inherit"/>
</svg>
