<svg width="20" height="20" viewBox="0 0 20 20" fill="none" xmlns="http://www.w3.org/2000/svg">
<path fill-rule="evenodd" clip-rule="evenodd" d="M17.842 2.69048L17.3095 2.158C16.4311 1.28067 15.008 1.28067 14.1296 2.158L2.60997 13.6776L1.5 18.5L6.32235 17.39L17.842 5.87039C18.7193 4.99196 18.7193 3.56891 17.842 2.69048ZM6.0148 13.9851L4.74733 13.6551L12.8471 5.56289L14.437 7.15284L6.34479 15.2526L6.0148 13.9851ZM3.84742 14.9752L4.78489 15.2152L5.02488 16.1526L3.52493 16.5051L3.84742 14.9752ZM16.777 4.81297L15.502 6.09543L13.9046 4.49798L15.1871 3.22302C15.3279 3.08104 15.5196 3.00117 15.7195 3.00117C15.9195 3.00117 16.1112 3.08104 16.252 3.22302L16.777 3.748C16.919 3.88882 16.9988 4.08051 16.9988 4.28048C16.9988 4.48045 16.919 4.67215 16.777 4.81297V4.81297Z" fill="inherit"/>
</svg>
