<svg width="20" height="20" viewBox="0 0 20 20" fill="none" xmlns="http://www.w3.org/2000/svg">
<path d="M10 4.25113C6.54126 1.78015 2 3.73188 2 3.73188V16.5359C2 16.5359 6.45165 15.157 9.63032 16.9888L9.65142 17H9.93535H10.0646H10.3486L10.3697 16.9886C13.5484 15.1568 18 16.5357 18 16.5357V3.73168C18 3.73168 13.4585 1.78015 10 4.25113ZM9.57845 15.6503C6.5161 13.9093 3.14098 14.9716 3.14098 14.9716V4.65101C3.14098 4.65101 6.45146 3.27212 9.57845 5.29988V15.6503ZM16.859 14.9716C16.859 14.9716 13.4839 13.9093 10.4216 15.6503V5.29988C13.5484 3.27212 16.859 4.65101 16.859 4.65101V14.9716Z" fill="inherit" stroke="inherit" stroke-width="0.7"/>
</svg>
