<svg width="20" height="20" viewBox="0 0 20 20" fill="none" xmlns="http://www.w3.org/2000/svg">
<path d="M11.7275 6.23439C14.2819 4.84126 16.9314 5.84876 16.9314 5.84876V7.14063C16.9314 7.14063 14.3546 6.29274 11.7275 7.58309V6.23439Z" fill="inherit"/>
<path d="M11.7275 8.81105C14.2819 7.41792 16.9314 8.42542 16.9314 8.42542V9.71751C16.9314 9.71751 14.3546 8.86962 11.7275 10.1598V8.81105Z" fill="inherit"/>
<path d="M11.7275 11.3877C14.2819 9.99458 16.9314 11.0021 16.9314 11.0021V12.294C16.9314 12.294 14.3546 11.4461 11.7275 12.7364V11.3877Z" fill="inherit"/>
<path d="M10 3.38298C6.10892 0.651605 1 2.80901 1 2.80901V16.9623C1 16.9623 6.0081 15.4381 9.58411 17.4629L9.60784 17.4754H9.92727H10.0727H10.3922L10.4159 17.4627C13.9919 15.4379 19 16.9621 19 16.9621V2.80879C19 2.80901 13.8909 0.651605 10 3.38298ZM9.52575 15.9834C6.08061 14.059 2.2836 15.2332 2.2836 15.2332V3.825C2.2836 3.825 6.00789 2.3008 9.52575 4.54225V15.9834ZM17.7164 15.2332C17.7164 15.2332 13.9194 14.059 10.4742 15.9834V4.54225C13.9919 2.3008 17.7164 3.825 17.7164 3.825V15.2332Z" fill="inherit"/>
<path d="M8.27222 6.23439C5.71786 4.84126 3.06836 5.84876 3.06836 5.84876V7.14063C3.06836 7.14063 5.64514 6.29274 8.27222 7.58309V6.23439Z" fill="inherit"/>
<path d="M8.27222 8.81105C5.71786 7.41792 3.06836 8.42542 3.06836 8.42542V9.71751C3.06836 9.71751 5.64514 8.86962 8.27222 10.1598V8.81105Z" fill="inherit"/>
<path d="M8.27222 11.3877C5.71786 9.99458 3.06836 11.0021 3.06836 11.0021V12.294C3.06836 12.294 5.64514 11.4461 8.27222 12.7364V11.3877Z" fill="inherit"/>
</svg>
