<svg width="21" height="21" viewBox="0 0 21 21" fill="none" xmlns="http://www.w3.org/2000/svg">
<path fill-rule="evenodd" clip-rule="evenodd" d="M7.72811 0V2.31821H9.27358V0H7.72811ZM2.31821 7.72754H0V6.18207H2.31821V7.72754ZM5.40905 18.5456H11.5909V17.0002H5.40905V18.5456ZM6.95405 20.0917H10.045V18.5462H6.95405V20.0917ZM17.0004 7.72754H14.6822V6.18207H17.0004V7.72754ZM13.4559 4.27804L15.0951 2.63884L14.0023 1.54604L12.3631 3.18524L13.4559 4.27804ZM2.63882 1.54604L4.2781 3.18524L3.18529 4.27804L1.54604 2.63884L2.63882 1.54604ZM4.63651 8.50018C4.63651 6.36635 6.36635 4.63651 8.50018 4.63651C10.634 4.63651 12.3639 6.36635 12.3639 8.50018C12.3639 10.0845 11.4102 11.4462 10.0457 12.0424V14.6821H6.95471V12.0424C5.59014 11.4462 4.63651 10.0845 4.63651 8.50018ZM8.50018 3.09104C5.51279 3.09104 3.09104 5.51279 3.09104 8.50018C3.09104 10.3383 4.00789 11.9623 5.40924 12.9398V16.2275H11.5911V12.9398C12.9925 11.9623 13.9093 10.3383 13.9093 8.50018C13.9093 5.51279 11.4876 3.09104 8.50018 3.09104Z" fill="inherit"/>
<path fill-rule="evenodd" clip-rule="evenodd" d="M16.912 18.8646C16.9129 18.8649 16.9134 18.865 16.9134 18.865L16.912 18.8646ZM16.499 18.7037C16.4941 18.7016 16.4891 18.6994 16.4842 18.6973C16.2025 18.5754 15.8359 18.3952 15.4779 18.1599C14.7049 17.6517 14.2727 17.0948 14.2727 16.52V13.6249L16.5 12.3916L18.7273 13.6249V16.52C18.7273 17.0913 18.2959 17.6483 17.5214 18.1581C17.1632 18.3939 16.7963 18.5746 16.5144 18.697C16.5093 18.6993 16.5041 18.7015 16.499 18.7037ZM20 12.938V16.52C20 18.872 16.5 20 16.5 20C16.5 20 13 18.878 13 16.52V12.938L16.5 11L20 12.938ZM16.086 18.8652L16.0848 18.8656C16.0845 18.8658 16.0848 18.8656 16.086 18.8652Z" fill="inherit"/>
<path fill-rule="evenodd" clip-rule="evenodd" d="M16.4989 18.5947C16.2243 18.4746 15.8741 18.3008 15.5328 18.0764C14.767 17.573 14.3726 17.0421 14.3726 16.52V13.6839L16.4999 12.506L18.6272 13.6839V16.52C18.6272 17.0386 18.2337 17.5695 17.4663 18.0746C17.1245 18.2997 16.7738 18.4741 16.4989 18.5947ZM18.7272 13.6249L16.4999 12.3917L14.2726 13.6249V16.52C14.2726 17.0948 14.7048 17.6518 15.4778 18.16C15.8358 18.3953 16.2024 18.5754 16.4841 18.6973L16.4989 18.7037L16.5143 18.6971C16.7962 18.5747 17.1631 18.394 17.5213 18.1581C18.2958 17.6483 18.7272 17.0914 18.7272 16.52V13.6249ZM20.0999 12.8791V16.52C20.0999 17.7492 19.1864 18.6453 18.3049 19.2256C17.8612 19.5176 17.4182 19.7347 17.0866 19.8788C16.9207 19.9508 16.7822 20.0048 16.685 20.0408C16.6364 20.0588 16.5981 20.0723 16.5718 20.0813L16.5415 20.0916L16.5336 20.0943L16.5314 20.0949C16.5314 20.095 16.5306 20.0952 16.4999 20C16.4999 20 19.9999 18.872 19.9999 16.52V12.938L16.4999 11L12.9999 12.938V16.52C12.9999 18.878 16.4999 20 16.4999 20C16.4694 20.0953 16.4693 20.0953 16.4693 20.0952L16.4664 20.0943L16.4584 20.0917L16.4281 20.0815C16.4018 20.0724 16.3635 20.059 16.3149 20.0411C16.2177 20.0052 16.0793 19.9515 15.9133 19.8797C15.5817 19.7361 15.1387 19.5196 14.695 19.2279C13.8133 18.6483 12.8999 17.7522 12.8999 16.52V12.8791L16.4999 10.8857L20.0999 12.8791ZM16.4999 20L16.5314 20.0949L16.5 20.1051L16.4693 20.0952L16.4999 20ZM16.0847 18.8657C16.0845 18.8657 16.0845 18.8657 16.0847 18.8657V18.8657Z" fill="inherit"/>
</svg>
