<svg width="20" height="20" viewBox="0 0 20 20" fill="none" xmlns="http://www.w3.org/2000/svg">
<path fill-rule="evenodd" clip-rule="evenodd" d="M14.5 1.75V1H13V1.75H7V1H5.5V1.75H1V19H19V1.75H14.5ZM5.5 3.25V4H7V3.25H13V4H14.5V3.25H17.5V5.5H2.5V3.25H5.5ZM2.5 17.5V7H17.5V17.5H2.5ZM3.25 8.5H4.75V10H3.25V8.5ZM6.25 8.5H7.75V10H6.25V8.5ZM9.25 8.5H10.75V10H9.25V8.5ZM12.25 8.5H13.75V10H12.25V8.5ZM15.25 8.5H16.75V10H15.25V8.5ZM3.25 11.5H4.75V13H3.25V11.5ZM6.25 11.5H7.75V13H6.25V11.5ZM9.25 11.5H10.75V13H9.25V11.5ZM12.25 11.5H13.75V13H12.25V11.5ZM15.25 11.5H16.75V13H15.25V11.5ZM3.25 14.5H4.75V16H3.25V14.5ZM6.25 14.5H7.75V16H6.25V14.5ZM9.25 14.5H10.75V16H9.25V14.5Z" fill="inherit"/>
</svg>
