<svg width="20" height="20" viewBox="0 0 20 20" fill="none" xmlns="http://www.w3.org/2000/svg">
<path fill-rule="evenodd" clip-rule="evenodd" d="M13.0681 8.05369H15.7372V9.54069H10.5327V4.33618H12.0197V7.00535L17.4399 1.57778L18.4956 2.63356L13.0681 8.05369ZM10.3989 11.4738L15.1573 13.5259L14.5253 17.1244C14.4396 17.5818 14.1711 17.9846 13.7818 18.2397C13.5152 18.4093 13.2057 18.4996 12.8896 18.4999C12.7516 18.5016 12.6139 18.4841 12.4807 18.4478C10.3633 17.8897 8.42027 16.8082 6.83009 15.3028C6.02887 14.5486 5.32231 13.6997 4.72598 12.7749C4.11169 11.8105 3.61261 10.7775 3.23897 9.69682C2.49544 7.54962 2.24141 5.26334 2.49547 3.0053C2.52318 2.54675 2.74158 2.12074 3.09771 1.83057C3.46872 1.55547 3.9366 1.44523 4.3914 1.52573L7.99739 2.15771V7.72654L6.76317 8.51465C7.02507 9.24763 7.36928 9.94853 7.78921 10.6039C8.19405 11.2522 8.67313 11.851 9.21673 12.3883L10.3989 11.4738ZM10.6144 13.1838L9.12744 14.3214L8.6739 13.9199C7.83989 13.1877 7.11616 12.3387 6.52518 11.3994C5.93328 10.4764 5.47284 9.47543 5.15714 8.42538L4.98613 7.88262L6.47313 6.91607V3.40674L4.09393 2.99038C4.05756 2.97942 4.01877 2.97942 3.9824 2.99038C3.94834 3.0191 3.9248 3.05833 3.91549 3.1019C3.69053 5.15049 3.92679 7.22345 4.60694 9.16888C4.95045 10.1397 5.4045 11.0677 5.96012 11.9347C6.49834 12.7488 7.12962 13.4973 7.84118 14.1652C9.24674 15.5111 10.971 16.4781 12.8524 16.9757C12.893 16.9918 12.9382 16.9918 12.9788 16.9757C13.0186 16.9431 13.0472 16.8989 13.0606 16.8493L13.4918 14.4106L10.6144 13.1838Z" fill="inherit"/>
</svg>
