<svg width="20" height="20" viewBox="0 0 20 20" fill="none" xmlns="http://www.w3.org/2000/svg">
<path fill-rule="evenodd" clip-rule="evenodd" d="M3.29948 8.29565C3.70518 7.38261 4.08553 6.44348 4.59267 5.4C4.87159 4.90435 5.17587 4.46087 5.73372 4.4087H14.2789C14.8368 4.46087 15.1411 4.90435 15.42 5.4C15.9271 6.44348 16.3075 7.38261 16.7132 8.29565H3.29948ZM7.30583 12.0522H12.6815C13.0111 12.0522 13.2647 12.3391 13.2647 12.6783C13.2647 12.9913 13.0111 13.2783 12.6815 13.2783H7.30583C7.00155 13.2783 6.72263 12.9913 6.72263 12.6783C6.72263 12.3391 7.00155 12.0522 7.30583 12.0522ZM5.73372 3C4.82088 3 4.26303 3.33913 3.50233 4.43478L2.23449 7.38261H0.307385C0.0031049 7.38261 -0.554742 9 1.47379 9.05217L0.789162 10.7478C0.814519 12.913 0.814519 15.0522 0.814519 17.1913C0.814519 17.6348 1.16951 18 1.60058 18H4.23767C4.66874 18 4.99837 17.6348 4.99837 17.1913V15.4174H14.9889V17.1913C14.9889 17.6348 15.3439 18 15.775 18H18.4121C18.8431 18 19.1728 17.6348 19.1728 17.1913C19.1728 15.0522 19.1981 12.913 19.1981 10.7478L18.5135 9.05217C20.5674 9 19.9842 7.38261 19.7053 7.38261H17.7781L16.5103 4.43478C15.7496 3.33913 15.1918 3 14.2789 3H5.73372ZM16.3328 10.9043C15.6482 10.9043 15.065 11.4783 15.065 12.2087C15.065 12.913 15.6482 13.513 16.3328 13.513C17.0428 13.513 17.6007 12.913 17.6007 12.2087C17.6007 11.4783 17.0428 10.9043 16.3328 10.9043ZM3.67983 10.9043C4.36446 10.9043 4.94766 11.4783 4.94766 12.2087C4.94766 12.913 4.36446 13.513 3.67983 13.513C2.96984 13.513 2.41199 12.913 2.41199 12.2087C2.41199 11.4783 2.96984 10.9043 3.67983 10.9043Z" fill="inherit"/>
</svg>
