<svg width="20" height="20" viewBox="0 0 20 20" fill="none" xmlns="http://www.w3.org/2000/svg">
<path d="M5.13701 13.7092C4.76252 13.926 4.45675 14.243 4.25449 14.6241C4.05224 15.0052 3.96163 15.435 3.99298 15.8648C4.02432 16.2946 4.17636 16.707 4.43179 17.0551C4.68723 17.4031 5.03579 17.6729 5.43783 17.8337C5.83986 17.9945 6.27921 18.0399 6.70589 17.9646C7.13257 17.8894 7.52943 17.6965 7.85132 17.408C8.17321 17.1195 8.4072 16.747 8.52665 16.3328C8.6461 15.9186 8.64622 15.4794 8.52701 15.0651H12.5567C12.4243 15.5295 12.4421 16.0236 12.6076 16.4774C12.7731 16.9312 13.0778 17.3218 13.4788 17.5939C13.8798 17.866 14.3566 18.0059 14.8419 17.9938C15.3272 17.9816 15.7964 17.818 16.1831 17.5262C16.5698 17.2343 16.8544 16.829 16.9967 16.3675C17.139 15.906 17.1318 15.4116 16.976 14.9544C16.8203 14.4972 16.5239 14.1003 16.1289 13.8197C15.7338 13.5392 15.2601 13.3893 14.7746 13.3912H6.78887L6.56161 12.0604H16.7484L19 4.6239H5.28642L4.8361 2H1V3.67394H3.41571L5.13701 13.7092ZM6.92986 15.6824C6.92986 15.8065 6.89283 15.9279 6.82347 16.0311C6.7541 16.1343 6.65551 16.2148 6.54016 16.2623C6.4248 16.3098 6.29787 16.3223 6.17542 16.298C6.05296 16.2738 5.94048 16.214 5.85219 16.1262C5.7639 16.0385 5.70378 15.9266 5.67942 15.8048C5.65506 15.6831 5.66756 15.5569 5.71534 15.4421C5.76312 15.3274 5.84404 15.2294 5.94785 15.1604C6.05167 15.0915 6.17372 15.0546 6.29857 15.0546C6.38148 15.0549 6.46351 15.0714 6.54 15.1032C6.61648 15.135 6.68592 15.1815 6.74434 15.24C6.80277 15.2985 6.84904 15.3678 6.88051 15.4441C6.91198 15.5203 6.92803 15.602 6.92775 15.6845L6.92986 15.6824ZM15.3996 15.6824C15.3996 15.8065 15.3626 15.9279 15.2932 16.0311C15.2238 16.1343 15.1252 16.2148 15.0099 16.2623C14.8945 16.3098 14.7676 16.3223 14.6451 16.298C14.5227 16.2738 14.4102 16.214 14.3219 16.1262C14.2336 16.0385 14.1735 15.9266 14.1491 15.8048C14.1248 15.6831 14.1373 15.5569 14.1851 15.4421C14.2328 15.3274 14.3138 15.2294 14.4176 15.1604C14.5214 15.0915 14.6434 15.0546 14.7683 15.0546C14.8512 15.0549 14.9332 15.0714 15.0097 15.1032C15.0862 15.135 15.1556 15.1815 15.2141 15.24C15.2725 15.2985 15.3188 15.3678 15.3502 15.4441C15.3817 15.5203 15.3978 15.602 15.3975 15.6845L15.3996 15.6824Z" fill="inherit"/>
</svg>
