<svg width="20" height="20" viewBox="0 0 20 20" fill="none" xmlns="http://www.w3.org/2000/svg">
<path fill-rule="evenodd" clip-rule="evenodd" d="M10.1091 16.5C13.7784 16.5 16.7182 13.5708 16.7182 10C16.7182 6.42924 13.7784 3.5 10.1091 3.5C6.43977 3.5 3.5 6.42924 3.5 10C3.5 13.5708 6.43977 16.5 10.1091 16.5ZM10.1091 18C14.5876 18 18.2182 14.4183 18.2182 10C18.2182 5.58172 14.5876 2 10.1091 2C5.63056 2 2 5.58172 2 10C2 14.4183 5.63056 18 10.1091 18Z" fill="inherit"/>
<path fill-rule="evenodd" clip-rule="evenodd" d="M14.6677 7.89814L9.69571 13.6771L5.63477 9.98593L6.98 8.50595L9.52005 10.8147L13.1516 6.59375L14.6677 7.89814Z" fill="inherit"/>
</svg>
