<svg width="20" height="20" viewBox="0 0 20 20" fill="none" xmlns="http://www.w3.org/2000/svg">
<path fill-rule="evenodd" clip-rule="evenodd" d="M16.9741 8.82048C16.9741 8.66007 16.9741 8.50731 16.9741 8.3469C17.0252 5.45019 14.7224 3.0585 11.8258 3C10.2865 3.01308 8.83532 3.7204 7.87672 4.92488C7.40963 4.66454 6.88378 4.52782 6.34904 4.52769C4.48311 4.56115 2.99653 6.09898 3.02632 7.96498C3.025 8.23798 3.05837 8.51005 3.12562 8.77465C1.70795 9.49604 0.820463 10.9574 0.834094 12.548C0.795753 14.8246 2.60608 16.7032 4.88246 16.7492H15.118C17.3943 16.7032 19.2047 14.8246 19.1663 12.548C19.182 10.9955 18.3385 9.56136 16.9741 8.82048ZM15.1409 15.2215H4.90539C3.47266 15.1758 2.34615 13.981 2.38471 12.548C2.36212 11.3449 3.1574 10.2793 4.31723 9.9586H4.39362C4.75804 9.87466 5.13677 9.87466 5.50119 9.9586L5.87547 8.47675C5.46849 8.37688 5.04846 8.3408 4.63041 8.36981C4.59715 8.23995 4.57921 8.10664 4.57694 7.97261C4.54693 6.95022 5.34968 6.09624 6.37197 6.063C6.81843 6.06818 7.24552 6.24613 7.56356 6.5595L7.60939 6.59769C7.82144 6.81305 7.98089 7.07445 8.07534 7.36154L9.54192 6.92615C9.4326 6.56756 9.26484 6.22947 9.04542 5.92551C9.70419 5.03812 10.7435 4.5142 11.8487 4.5124C13.9016 4.57068 15.5207 6.27851 15.4693 8.33162C15.034 8.29205 14.5951 8.32562 14.1708 8.43092L14.5451 9.91277C14.9215 9.82111 15.3144 9.82111 15.6908 9.91277L15.8971 9.98152C16.9789 10.3648 17.6911 11.4007 17.6616 12.548C17.7001 13.981 16.5736 15.1758 15.1409 15.2215Z" fill="inherit"/>
</svg>
