<svg width="20" height="20" viewBox="0 0 20 20" fill="none" xmlns="http://www.w3.org/2000/svg">
<path d="M10 1C11.6196 1 13.1368 1.41 14.5102 2.20963C15.8718 2.9971 17.0029 4.12818 17.7904 5.48982C18.59 6.86319 19 8.38037 19 10C19 11.64 18.59 13.1366 17.7904 14.5102C17.0029 15.8718 15.8718 17.0029 14.5102 17.7904C13.1368 18.59 11.6196 19 10 19C8.36001 19 6.8634 18.59 5.48982 17.7904C4.12818 17.0029 2.9971 15.8718 2.20963 14.5102C1.41 13.1366 1 11.64 1 10C1 8.38037 1.41 6.86319 2.20963 5.48982C2.9971 4.12818 4.12818 2.9971 5.48982 2.20963C6.8634 1.41 8.36001 1 10 1ZM13.1981 7.10902L13.0957 7.21168C13.0341 7.27319 12.9932 7.31413 12.9317 7.3347C12.9527 7.3347 12.9726 7.31371 12.9932 7.27319L13.0547 7.15017C13.0757 7.08866 13.0757 7.06809 13.0957 7.06809C13.1368 7.00651 13.2188 6.945 13.3417 6.88356C13.4441 6.84262 13.6493 6.80168 13.9568 6.74017C14.2232 6.67866 14.4077 6.74017 14.5513 6.88356C14.5303 6.86256 14.5723 6.80168 14.6743 6.7196L14.8383 6.57601C14.8593 6.55501 14.9204 6.55501 15.0023 6.53507C15.1049 6.51408 15.1662 6.47356 15.1868 6.43262L15.2078 6.18658C15.1053 6.18658 15.0438 6.16559 15.0027 6.1045C14.9615 6.04341 14.9412 5.96112 14.9208 5.85846C14.9208 5.87945 14.8998 5.90045 14.8593 5.94054C14.8593 5.87903 14.8383 5.85846 14.7978 5.85846C14.7772 5.83817 14.7362 5.83817 14.6748 5.85846C14.6133 5.87945 14.5927 5.90045 14.5721 5.87945C14.4902 5.85846 14.4287 5.81794 14.3878 5.79737C14.3458 5.75643 14.3263 5.69492 14.3057 5.59247C14.2851 5.49003 14.2648 5.44888 14.2442 5.42852C14.2231 5.37819 14.1874 5.33534 14.1418 5.3055C14.0802 5.26351 14.0391 5.22341 14.0187 5.18248C14.0201 5.17131 14.0189 5.15998 14.0152 5.14933C14.0116 5.13868 14.0056 5.12899 13.9977 5.12097L13.9568 5.03888L13.9148 4.97737C13.8938 4.95638 13.8728 4.93644 13.8533 4.93644C13.8357 4.93925 13.819 4.94632 13.8047 4.95704C13.7905 4.96776 13.779 4.9818 13.7714 4.99795L13.6893 5.12097C13.6684 5.16295 13.6474 5.18248 13.6278 5.18248C13.6198 5.17459 13.6101 5.1686 13.5995 5.16497C13.5888 5.16133 13.5775 5.16014 13.5663 5.16148H13.5057L13.4441 5.20242C13.4232 5.22341 13.4232 5.24441 13.4032 5.24441C13.3822 5.2654 13.3417 5.2654 13.3008 5.28534C13.2588 5.28534 13.2187 5.28534 13.1981 5.30634C13.3008 5.26435 13.3008 5.22425 13.1771 5.18332C13.1156 5.14133 13.0541 5.12181 12.9926 5.14133C13.0541 5.12034 13.095 5.05946 13.0747 4.99795C13.0747 4.93644 13.0537 4.89529 12.9926 4.83399H13.0346C13.0346 4.813 13.0136 4.77248 12.9527 4.73133L12.7476 4.62889C12.6655 4.60789 12.604 4.58795 12.5836 4.56738C12.5217 4.52686 12.3993 4.48487 12.1936 4.46388C11.9887 4.42189 11.8657 4.42189 11.8042 4.44289C11.7633 4.50447 11.7428 4.54547 11.7426 4.56591L11.8042 4.72986C11.8252 4.81195 11.8461 4.85288 11.8461 4.87346C11.8461 4.93497 11.8251 4.9759 11.7643 5.03741C11.7223 5.09892 11.7028 5.13986 11.7028 5.18101C11.7028 5.24252 11.7643 5.30403 11.8667 5.36554C11.9692 5.42705 12.0101 5.50892 11.9692 5.61137C11.9486 5.67295 11.8871 5.73446 11.7846 5.7959C11.7173 5.83584 11.6554 5.88409 11.6001 5.93949C11.5592 6.001 11.5592 6.06251 11.5791 6.1446C11.5996 6.22327 11.6423 6.29438 11.7021 6.34949C11.7231 6.37048 11.7231 6.37048 11.7231 6.39043C11.7231 6.41037 11.7021 6.43241 11.6822 6.45194L11.6207 6.49392L11.5386 6.53528L11.5176 6.55627C11.4149 6.59728 11.3329 6.57678 11.2716 6.49476C11.1895 6.39211 11.128 6.28966 11.1076 6.18721C11.0461 6.00268 10.9846 5.87966 10.9231 5.83873C10.7385 5.77722 10.6359 5.77722 10.5744 5.83873C10.5534 5.73607 10.3901 5.63362 10.1029 5.53117C9.91834 5.46966 9.69287 5.44909 9.42647 5.49024C9.4674 5.49024 9.4674 5.42873 9.42647 5.32607C9.36496 5.20305 9.30345 5.16211 9.201 5.18269C9.22635 5.11719 9.2402 5.0478 9.24194 4.97758C9.25478 4.92384 9.26182 4.86887 9.26293 4.81363C9.28392 4.71118 9.34501 4.6291 9.40652 4.54701C9.40652 4.52602 9.42752 4.50608 9.48861 4.44457C9.52954 4.38306 9.57048 4.34212 9.59105 4.28061C9.61205 4.23862 9.61205 4.2191 9.59105 4.2191C9.85767 4.24009 10.0626 4.19811 10.1856 4.09608L10.3292 3.89098C10.3712 3.78853 10.411 3.72702 10.4522 3.68608C10.4998 3.65104 10.556 3.62962 10.6149 3.62415C10.6359 3.62415 10.6968 3.64514 10.7788 3.68566C10.8269 3.72065 10.8836 3.74191 10.9428 3.74717C11.0454 3.76747 11.1069 3.72646 11.1273 3.62415C11.1483 3.5217 11.1063 3.43962 11.0455 3.37811C11.1479 3.3991 11.1479 3.33612 11.0665 3.19358C11.0493 3.14666 11.0212 3.10449 10.9846 3.07056C10.8819 3.04957 10.7795 3.07056 10.6565 3.13207C10.5949 3.17406 10.6155 3.21415 10.6984 3.23452C10.678 3.21422 10.637 3.25523 10.5754 3.35754L10.3911 3.56264C10.3297 3.60365 10.2682 3.58314 10.2066 3.50113L10.1245 3.33717C10.1035 3.23452 10.063 3.19358 10.022 3.19358C9.96053 3.19358 9.89902 3.25509 9.83751 3.35754C9.85851 3.29603 9.81652 3.25509 9.71449 3.19358C9.61247 3.13207 9.50939 3.1115 9.42752 3.09113C9.5709 2.98848 9.55054 2.88603 9.32486 2.78358C9.26188 2.74244 9.20058 2.72144 9.09792 2.72144C9.05613 2.71143 9.01275 2.70999 8.97039 2.7172C8.92803 2.72442 8.88758 2.74015 8.85146 2.76343L8.78995 2.90702C8.79278 2.92464 8.79986 2.9413 8.81058 2.95557C8.82129 2.96984 8.83533 2.98128 8.85146 2.9889L8.97448 3.05041L9.11808 3.11192C9.15007 3.12697 9.18519 3.13417 9.22052 3.13291C9.32297 3.21499 9.36412 3.2765 9.30261 3.29687C9.28161 3.31786 9.26062 3.31786 9.20016 3.33885L9.07714 3.40036L8.99505 3.4413C8.97406 3.46229 8.97406 3.52338 8.99505 3.60526C9.01605 3.68713 9.01605 3.74885 8.97406 3.76921C8.9198 3.71297 8.88406 3.64147 8.87161 3.56432C8.85062 3.46187 8.8101 3.40036 8.78953 3.37979C8.85104 3.4413 8.74859 3.46187 8.50255 3.4413H8.37953C8.31746 3.44192 8.25563 3.44895 8.195 3.46229C8.09256 3.48259 8.01054 3.48259 7.94896 3.46229C7.91688 3.46386 7.88494 3.45713 7.85622 3.44275C7.8275 3.42837 7.80298 3.40683 7.78501 3.38021C7.76457 3.31863 7.76457 3.23662 7.78501 3.13417C7.806 3.11318 7.82699 3.09218 7.84652 3.11318L7.70313 3.01073L7.60048 2.90828C7.23163 3.01073 6.86256 3.17469 6.4935 3.37979C6.53444 3.40078 6.57559 3.40078 6.63689 3.37979L6.78048 3.29771C6.84192 3.2567 6.88293 3.2362 6.9035 3.2362C7.17011 3.13375 7.33407 3.09281 7.39558 3.15432L7.45709 3.09281L7.68256 3.37979C7.62105 3.3588 7.5186 3.3588 7.33407 3.37979C7.19048 3.42178 7.1086 3.46187 7.08803 3.52338C7.15101 3.60316 7.15101 3.66614 7.13002 3.7266L7.00679 3.60316C6.94528 3.54165 6.90434 3.50071 6.84283 3.48014L6.6583 3.41863C6.53528 3.41863 6.45341 3.41863 6.3919 3.43962C5.26797 4.04818 4.32146 4.93834 3.64514 6.02284C3.68613 6.06564 3.73476 6.10038 3.78853 6.12528C3.81819 6.15302 3.8395 6.18851 3.85004 6.22773C3.85004 6.28924 3.85004 6.33018 3.87103 6.35075C3.89202 6.37132 3.93254 6.37174 4.01442 6.32976C4.07593 6.39127 4.0965 6.45278 4.0564 6.55543C4.0564 6.53444 4.22036 6.63731 4.56885 6.86277L4.81321 7.10902C4.8342 7.19111 4.79221 7.25262 4.69019 7.31413L4.58774 7.21168C4.52686 7.15101 4.48487 7.15101 4.48487 7.17074C4.46388 7.21273 4.46388 7.2734 4.48487 7.37585C4.50587 7.4783 4.54638 7.53981 4.60789 7.53981C4.54638 7.53981 4.52581 7.60132 4.50524 7.72434C4.48016 7.85964 4.46612 7.99676 4.46325 8.13433V8.40095L4.48424 8.42194C4.46325 8.5246 4.48424 8.64762 4.54575 8.83194C4.60726 9.01626 4.68914 9.07798 4.79158 9.05761C4.68914 9.07791 4.77115 9.24187 5.03762 9.54949L5.11971 9.67251L5.2633 9.75459L5.44762 9.87761C5.49676 9.90343 5.53367 9.94766 5.55028 10.0006C5.59115 10.0212 5.63215 10.1032 5.6733 10.2467C5.70108 10.3554 5.75773 10.4545 5.83726 10.5336C5.81626 10.5746 5.85825 10.6567 5.9397 10.7591C6.04215 10.8616 6.0833 10.9642 6.06272 11.0257L6.04173 11.0467L6.02074 11.0677C6.04173 11.1292 6.08225 11.1702 6.18469 11.2317C6.28714 11.2932 6.34865 11.3343 6.36922 11.3753C6.39022 11.3963 6.39022 11.4368 6.39022 11.4983C6.41121 11.5598 6.41121 11.6007 6.4322 11.6213C6.4532 11.6419 6.47314 11.6622 6.53465 11.6423C6.55564 11.4989 6.45278 11.2529 6.24767 10.9248L6.04257 10.5763L5.98106 10.3917C5.96007 10.3099 5.96007 10.2483 5.93907 10.2278C5.95024 10.2264 5.96157 10.2276 5.97221 10.2313C5.98286 10.2349 5.99255 10.2409 6.00058 10.2488C6.02158 10.2698 6.06209 10.2698 6.10303 10.2897L6.18511 10.3306C6.20611 10.3516 6.2271 10.3516 6.20611 10.3726C6.18511 10.4341 6.20611 10.4956 6.2271 10.5775C6.26295 10.6536 6.31151 10.7229 6.37069 10.7826L6.5758 11.0081L6.71918 11.1721C6.78179 11.2412 6.83676 11.3168 6.88314 11.3977C6.94465 11.5002 6.94465 11.5617 6.88314 11.5617C6.94465 11.5617 7.02673 11.6026 7.10881 11.6641C7.19458 11.7299 7.26458 11.8139 7.31371 11.9102C7.3557 11.9717 7.39579 12.0741 7.41616 12.2177C7.43652 12.3613 7.43715 12.4432 7.45814 12.4841C7.47914 12.5456 7.51965 12.5868 7.56059 12.6483C7.6016 12.6912 7.65031 12.7259 7.70418 12.7507L7.90908 12.8532L8.05267 12.9353L8.27814 13.0583C8.38058 13.1198 8.46267 13.1813 8.52418 13.2017C8.60605 13.2227 8.66756 13.2437 8.70871 13.2437C8.74985 13.2437 8.81115 13.2227 8.87266 13.2017L9.03662 13.1607C9.15964 13.1397 9.28266 13.2017 9.38511 13.3453C9.48756 13.4889 9.56964 13.5707 9.63115 13.5913C9.89776 13.7347 10.1232 13.7758 10.2668 13.7143C10.2458 13.7353 10.2458 13.7553 10.2668 13.8168L10.3693 13.9807L10.4717 14.1653L10.5332 14.2677C10.594 14.3313 10.663 14.3865 10.7383 14.4319C10.8408 14.4934 10.9229 14.5549 10.9638 14.6164L11.0459 14.5137C11.0249 14.5753 11.0459 14.6368 11.1278 14.7392C11.1893 14.8419 11.2713 14.8828 11.3329 14.8622C11.4353 14.8412 11.4968 14.6983 11.4968 14.4728C11.2508 14.5958 11.0662 14.5343 10.9229 14.2677C10.9202 14.246 10.913 14.225 10.9019 14.2062L10.8406 14.0998C10.8196 14.0788 10.8196 14.0383 10.8196 13.9973C10.8098 13.9859 10.8044 13.9713 10.8044 13.9563C10.8044 13.9412 10.8098 13.9267 10.8196 13.9152C10.8196 13.8942 10.8406 13.8732 10.8811 13.8732C10.9426 13.8732 10.9837 13.8523 10.9837 13.8323C11.0047 13.8113 10.9837 13.7502 10.9627 13.6887C10.9418 13.6272 10.9418 13.5657 10.9218 13.5451L10.7988 13.2993L10.6569 13.1366C10.6159 13.1981 10.5544 13.2393 10.4723 13.2187C10.3699 13.2187 10.3084 13.1777 10.2878 13.1162C10.2891 13.1274 10.2879 13.1387 10.2842 13.1494C10.2806 13.16 10.2747 13.1697 10.2668 13.1777C10.2523 13.2025 10.2451 13.2309 10.2458 13.2596C10.1434 13.2596 10.0819 13.2596 10.0613 13.2386C10.0823 13.2176 10.0823 13.1565 10.1022 13.0335L10.1442 12.7875C10.1442 12.7465 10.1652 12.7056 10.2057 12.6441L10.2876 12.4596C10.3136 12.4161 10.3281 12.3666 10.3296 12.316C10.3506 12.275 10.3296 12.2339 10.2876 12.2135C10.2237 12.1832 10.1534 12.1688 10.0827 12.1715C9.93912 12.1921 9.8366 12.2741 9.77516 12.4176C9.75417 12.4386 9.75417 12.4791 9.73318 12.5406L9.67167 12.6636C9.65067 12.7056 9.62968 12.7251 9.56901 12.7457C9.48313 12.7742 9.39307 12.788 9.30261 12.7866L9.01563 12.7251C8.91297 12.6636 8.81052 12.5406 8.74901 12.3766C8.6875 12.2127 8.64657 12.0691 8.64657 11.9461C8.64468 11.8431 8.6517 11.7402 8.66756 11.6385C8.68855 11.4951 8.68855 11.4131 8.70955 11.3515C8.70955 11.29 8.68855 11.1876 8.64804 11.0646L8.75048 10.9415L8.85293 10.8185C8.8641 10.8199 8.87543 10.8187 8.88608 10.815C8.89673 10.8114 8.90642 10.8054 8.91444 10.7975H8.97595C8.99694 10.8185 8.99694 10.7975 9.01794 10.7765L9.05992 10.715L8.99841 10.6741C8.97742 10.6531 8.97742 10.6531 8.95748 10.6531C9.01899 10.6741 9.12143 10.6531 9.28539 10.6321C9.46992 10.5901 9.57237 10.5901 9.61351 10.6531C9.73653 10.7352 9.81841 10.7146 9.87992 10.6122C9.86381 10.5788 9.84979 10.5446 9.83793 10.5095C9.81694 10.448 9.81694 10.3865 9.83793 10.3455C9.87992 10.571 9.98132 10.5916 10.1658 10.448C10.1864 10.4686 10.2479 10.4891 10.3504 10.5095L10.5555 10.571L10.6359 10.6359C10.6779 10.6569 10.6974 10.6779 10.6974 10.6974H10.7589L10.8616 10.6155C10.9296 10.6997 10.9785 10.7976 11.0049 10.9025C11.087 11.21 11.1691 11.374 11.2304 11.4149C11.2699 11.429 11.3115 11.4362 11.3534 11.4359L11.4149 11.3129V11.1481C11.3939 11.1061 11.3939 11.066 11.3939 11.0045L11.373 10.9224V10.6149C11.2499 10.5939 11.1681 10.5328 11.1475 10.4713C11.136 10.4342 11.132 10.3952 11.1356 10.3565C11.1392 10.3178 11.1503 10.2802 11.1685 10.2458C11.2181 10.1677 11.2804 10.0984 11.3528 10.0407C11.3528 10.0197 11.3738 10.0197 11.4349 9.99874L11.6194 9.91666C11.672 9.89866 11.7207 9.87088 11.763 9.83478C11.927 9.69119 11.9885 9.5476 11.9473 9.42479C12.0088 9.42479 12.05 9.3828 12.0704 9.30177C12.0592 9.30308 12.0479 9.30187 12.0372 9.29824C12.0266 9.29461 12.0169 9.28864 12.0088 9.28077L11.927 9.21926C11.9189 9.2114 11.9092 9.20543 11.8986 9.20179C11.8879 9.19816 11.8766 9.19696 11.8655 9.19827C11.927 9.15733 11.9473 9.09582 11.8865 9.01374C11.9284 8.99275 11.9685 8.93187 11.9891 8.87036C12.0097 8.80885 12.03 8.78827 12.071 8.76791C12.1325 8.84978 12.2146 8.84978 12.317 8.7889C12.3785 8.72739 12.3785 8.66588 12.338 8.60437C12.359 8.54286 12.4405 8.50192 12.5635 8.48135C12.6865 8.46078 12.7686 8.41984 12.7889 8.35833C12.8505 8.37932 12.871 8.35833 12.871 8.33734C12.892 8.31634 12.892 8.25525 12.892 8.19374C12.8934 8.14313 12.9079 8.09374 12.934 8.05036C12.955 8.00837 13.0161 7.96828 13.098 7.9477C13.2004 7.92671 13.2416 7.90677 13.2619 7.88619L13.4465 7.76317C13.4674 7.74218 13.4674 7.72224 13.4465 7.72224C13.59 7.74323 13.7131 7.6813 13.8155 7.57864C13.8976 7.49677 13.877 7.41469 13.754 7.35318C13.775 7.31119 13.754 7.2713 13.7131 7.25073C13.6721 7.23016 13.6106 7.18922 13.5285 7.16865H13.6721C13.7336 7.16865 13.7746 7.16865 13.7952 7.14765C13.918 7.08614 13.8976 7.02463 13.7131 6.96312C13.5695 6.92114 13.4055 6.96312 13.2004 7.10651L13.1981 7.10902ZM11.2915 17.3804C12.9118 17.114 14.2853 16.376 15.4123 15.1662C15.3913 15.1452 15.3304 15.1253 15.2689 15.1253C15.1868 15.1043 15.1459 15.1043 15.1253 15.0833L14.8383 14.9815C14.8371 14.931 14.823 14.8816 14.7974 14.8381C14.7802 14.7912 14.752 14.749 14.7153 14.7151L14.5717 14.633L14.4283 14.5511L14.3462 14.469L14.2644 14.4075L14.1823 14.3666C14.1413 14.3456 14.1002 14.3246 14.0798 14.3456H13.9772L13.9362 14.3666C13.9251 14.3653 13.9137 14.3665 13.9031 14.3701C13.8925 14.3738 13.8828 14.3797 13.8747 14.3876L13.8132 14.4296L13.7517 14.4716V14.4925C13.5877 14.349 13.4441 14.2669 13.3417 14.2259C13.3008 14.2259 13.2596 14.2049 13.1981 14.1644L13.0753 14.0788C13.0543 14.0578 13.0138 14.0578 12.9726 14.0578L12.8293 14.1397C12.7873 14.1816 12.7677 14.2423 12.7677 14.3242C12.7543 14.3709 12.7473 14.4192 12.7468 14.4678C12.6852 14.4468 12.6852 14.3653 12.7468 14.2627C12.8083 14.16 12.8083 14.0987 12.7677 14.0578C12.7472 13.9962 12.7062 13.9757 12.6447 13.9963C12.5832 14.0173 12.5217 14.0383 12.5011 14.0578L12.3573 14.1627C12.2958 14.2037 12.2752 14.2243 12.2547 14.2243L12.1522 14.3063L12.0498 14.3882C12.0288 14.4092 12.0078 14.4703 11.9883 14.5318L11.9268 14.6548C11.8928 14.6181 11.8507 14.5899 11.8037 14.5727C11.7217 14.5523 11.6807 14.5318 11.6807 14.5112C11.7017 14.5933 11.7017 14.7367 11.7217 14.9212L11.7832 15.3724C11.8447 15.6184 11.7832 15.8029 11.6398 15.926C11.4347 16.1309 11.3322 16.2948 11.3117 16.3975C11.2907 16.582 11.3326 16.6844 11.4552 16.7048C11.4552 16.7663 11.4133 16.8484 11.3526 16.9509C11.2919 17.0533 11.2707 17.1354 11.2707 17.1969C11.2696 17.2591 11.2767 17.3211 11.2917 17.3814L11.2915 17.3804Z" fill="#00A88E"/>
</svg>
