<svg width="20" height="20" viewBox="0 0 20 20" fill="none" xmlns="http://www.w3.org/2000/svg">
<path fill-rule="evenodd" clip-rule="evenodd" d="M9.16667 4.27273C9.16667 5.79993 8.10099 7.08283 6.66016 7.44398C6.66422 7.47724 6.66667 7.5111 6.66667 7.54545V9.18182H11.6667C12.5871 9.18182 13.3333 8.44923 13.3333 7.54545C13.3333 7.5111 13.3357 7.47724 13.3398 7.44398C11.899 7.08283 10.8333 5.79993 10.8333 4.27273C10.8333 2.46527 12.3258 1 14.1667 1C16.0075 1 17.5 2.46527 17.5 4.27273C17.5 5.79993 16.4343 7.08283 14.9935 7.44398C14.9976 7.47724 15 7.5111 15 7.54545C15 9.3529 13.5075 10.8182 11.6667 10.8182H6.66667V12.4545L6.66626 12.4749L6.66463 12.5067C6.66382 12.5233 6.66219 12.5397 6.66016 12.556C8.10099 12.9171 9.16667 14.2001 9.16667 15.7273C9.16667 17.5347 7.67415 19 5.83333 19C3.99252 19 2.5 17.5347 2.5 15.7273C2.5 14.2001 3.56568 12.9171 5.00651 12.556C5.00366 12.5324 5.00162 12.5085 5.00082 12.4843L5 12.4545V7.54545C5 7.5111 5.00244 7.47724 5.00651 7.44398C3.56568 7.08283 2.5 5.79993 2.5 4.27273C2.5 2.46527 3.99252 1 5.83333 1C7.67415 1 9.16667 2.46527 9.16667 4.27273ZM5.83333 5.90909C6.75374 5.90909 7.5 5.1765 7.5 4.27273C7.5 3.36896 6.75374 2.63636 5.83333 2.63636C4.91293 2.63636 4.16667 3.36896 4.16667 4.27273C4.16667 5.1765 4.91293 5.90909 5.83333 5.90909ZM14.1667 5.90909C15.0871 5.90909 15.8333 5.1765 15.8333 4.27273C15.8333 3.36896 15.0871 2.63636 14.1667 2.63636C13.2463 2.63636 12.5 3.36896 12.5 4.27273C12.5 5.1765 13.2463 5.90909 14.1667 5.90909ZM7.5 15.7273C7.5 16.631 6.75374 17.3636 5.83333 17.3636C4.91293 17.3636 4.16667 16.631 4.16667 15.7273C4.16667 14.8235 4.91293 14.0909 5.83333 14.0909C6.75374 14.0909 7.5 14.8235 7.5 15.7273Z" fill="#00A88E"/>
</svg>
