<svg width="20" height="20" viewBox="0 0 20 20" fill="none" xmlns="http://www.w3.org/2000/svg">
<g clip-path="url(#clip0_25566_113)">
<path d="M18.267 5.25819H16.1889V3.1801C16.1889 2.80227 15.8867 2.5 15.5088 2.5H1.6801C1.30227 2.5 1 2.82116 1 3.1801V14.0806C1 14.4584 1.30227 14.7607 1.6801 14.7607H3.73929V16.8199C3.73929 17.1977 4.04156 17.5 4.4194 17.5H18.2292C18.6071 17.5 18.9093 17.1977 18.9093 16.8199V5.93829C18.9471 5.56045 18.6448 5.25819 18.267 5.25819ZM16.3967 8.94207C16.3967 9.5466 15.9055 10.0378 15.301 10.0378C14.6965 10.0378 14.2053 9.5466 14.2053 8.94207C14.2053 8.33753 14.6965 7.84635 15.301 7.84635C15.9055 7.82746 16.3967 8.31864 16.3967 8.94207ZM3.75819 5.93829V13.4005H2.37909V3.87909H14.8098V5.25819H4.43829C4.06045 5.25819 3.75819 5.56045 3.75819 5.93829ZM5.13728 16.1587V14.9685L8.91562 10.6234C9.23678 10.2456 9.82242 10.2456 10.1436 10.6234L12.8073 13.6839L14.0164 12.3426C14.2997 12.0214 14.8098 12.0214 15.0932 12.3426L17.568 15.063V16.1587H5.13728Z" fill="inherit"/>
</g>
<defs>
<clipPath id="clip0_25566_113">
<rect width="20" height="20" fill="white"/>
</clipPath>
</defs>
</svg>
