<svg width="20" height="20" viewBox="0 0 20 20" fill="none" xmlns="http://www.w3.org/2000/svg">
<path fill-rule="evenodd" clip-rule="evenodd" d="M19 10C19 5.03704 14.963 1 10 1C5.03704 1 1 5.03704 1 10C1 14.963 5.03704 19 10 19C14.963 19 19 14.963 19 10ZM2.5 10C2.5 5.86546 5.86546 2.5 10 2.5C14.1345 2.5 17.5 5.86546 17.5 10C17.5 14.1345 14.1345 17.5 10 17.5C5.86546 17.5 2.5 14.1345 2.5 10ZM10 5C9.448 5 9 5.448 9 6C9 6.552 9.448 7 10 7C10.552 7 11 6.552 11 6C11 5.448 10.552 5 10 5ZM10.75 15V8H9.25V15H10.75Z" fill="inherit"/>
</svg>
