<svg width="20" height="20" viewBox="0 0 20 20" fill="none" xmlns="http://www.w3.org/2000/svg">
<path fill-rule="evenodd" clip-rule="evenodd" d="M10 17.5C14.1421 17.5 17.5 14.1421 17.5 10C17.5 5.85786 14.1421 2.5 10 2.5C5.85786 2.5 2.5 5.85786 2.5 10C2.5 14.1421 5.85786 17.5 10 17.5ZM10 19C14.9706 19 19 14.9706 19 10C19 5.02944 14.9706 1 10 1C5.02944 1 1 5.02944 1 10C1 14.9706 5.02944 19 10 19Z" fill="#00A88E"/>
<path d="M9.0498 12.3359H10.5342V11.7095C10.5342 9.87619 13.2998 9.61647 13.2998 7.09564C13.2998 5.39981 11.7998 4.2998 10.0342 4.2998C8.33105 4.2998 7.2998 5.27758 7.2998 5.27758L8.14355 6.33175C8.14355 6.33175 8.94043 5.69008 9.9248 5.69008C10.9561 5.69008 11.7061 6.34703 11.7061 7.20258C11.7061 8.95953 9.0498 9.29564 9.0498 11.6179V12.3359ZM9.01855 15.2998H10.5654V13.8179H9.01855V15.2998Z" fill="#00A88E"/>
</svg>
