<svg width="20" height="20" viewBox="0 0 20 20" fill="none" xmlns="http://www.w3.org/2000/svg">
<path fill-rule="evenodd" clip-rule="evenodd" d="M14.5766 6.26342C14.5766 6.72739 14.2004 7.10342 13.7366 7.10342C13.2727 7.10342 12.8966 6.72739 12.8966 6.26342C12.8966 5.79945 13.2727 5.42342 13.7366 5.42342C14.2005 5.42342 14.5766 5.79945 14.5766 6.26342ZM10 12.3333C8.71134 12.3333 7.6667 11.2887 7.6667 10C7.6667 8.71134 8.71134 7.6667 10 7.6667C11.2887 7.6667 12.3333 8.71134 12.3333 10C12.3333 11.2887 11.2887 12.3333 10 12.3333ZM10 6.40539C8.01473 6.40539 6.40539 8.01473 6.40539 10C6.40539 11.9853 8.01473 13.5946 10 13.5946C11.9853 13.5946 13.5946 11.9853 13.5946 10C13.5946 8.01473 11.9853 6.40539 10 6.40539ZM10 4.26131C11.8691 4.26131 12.0905 4.26842 12.8285 4.30211C13.511 4.33328 13.8817 4.44725 14.1284 4.54317C14.4551 4.67016 14.6882 4.82186 14.9332 5.06686C15.1782 5.31175 15.33 5.54494 15.4569 5.87175C15.5527 6.11839 15.6668 6.48906 15.698 7.17156C15.7317 7.90973 15.7388 8.13111 15.7388 10.0002C15.7388 11.8693 15.7317 12.0907 15.698 12.8288C15.6668 13.5113 15.5529 13.8819 15.4569 14.1286C15.33 14.4553 15.1782 14.6885 14.9332 14.9335C14.6884 15.1785 14.4552 15.3302 14.1284 15.4572C13.8817 15.553 13.511 15.667 12.8285 15.6982C12.0905 15.7319 11.8691 15.739 10 15.739C8.13078 15.739 7.90941 15.7319 7.17134 15.6982C6.48884 15.667 6.11817 15.5531 5.87153 15.4572C5.54483 15.3302 5.31164 15.1785 5.06664 14.9335C4.82175 14.6886 4.66994 14.4554 4.54295 14.1286C4.44714 13.8819 4.33306 13.5113 4.30189 12.8288C4.2682 12.0906 4.26109 11.8692 4.26109 10.0002C4.26109 8.13111 4.2682 7.90973 4.30189 7.17156C4.33306 6.48906 4.44703 6.11839 4.54295 5.87175C4.66994 5.54505 4.82164 5.31186 5.06664 5.06686C5.31153 4.82186 5.54472 4.67016 5.87153 4.54317C6.11817 4.44736 6.48884 4.33328 7.17134 4.30211C7.90952 4.26842 8.13089 4.26131 10 4.26131ZM10 3C8.09895 3 7.86052 3.00809 7.11392 3.04211C6.36886 3.07612 5.85994 3.19447 5.41478 3.3675C4.95442 3.54633 4.56406 3.78575 4.17491 4.17491C3.78575 4.56406 3.54633 4.95442 3.3675 5.41478C3.19447 5.86005 3.07612 6.36886 3.04211 7.11392C3.00809 7.86052 3 8.09895 3 10C3 11.901 3.00809 12.1395 3.04211 12.8861C3.07612 13.6311 3.19447 14.14 3.3675 14.5852C3.54633 15.0456 3.78575 15.4359 4.17491 15.8251C4.56406 16.2143 4.95442 16.4536 5.41478 16.6325C5.86005 16.8055 6.36886 16.9239 7.11392 16.9579C7.86052 16.9919 8.09895 17 10 17C11.901 17 12.1395 16.9919 12.8861 16.9579C13.6311 16.9239 14.14 16.8055 14.5852 16.6325C15.0456 16.4536 15.4359 16.2143 15.8251 15.8251C16.2143 15.4359 16.4536 15.0456 16.6325 14.5852C16.8055 14.14 16.9239 13.6311 16.9579 12.8861C16.9919 12.1395 17 11.901 17 10C17 8.09895 16.9919 7.86052 16.9579 7.11392C16.9239 6.36886 16.8055 5.86005 16.6325 5.41478C16.4536 4.95442 16.2143 4.56406 15.8251 4.17491C15.4359 3.78575 15.0456 3.54644 14.5852 3.3675C14.14 3.19447 13.6311 3.07612 12.8861 3.04211C12.1395 3.00809 11.901 3 10 3Z" fill="inherit"/>
</svg>
