<svg width="20" height="20" viewBox="0 0 20 20" fill="none" xmlns="http://www.w3.org/2000/svg">
<path fill-rule="evenodd" clip-rule="evenodd" d="M3 7.74026C3 5.12229 5.12229 3 7.74026 3C10.3582 3 12.4805 5.12229 12.4805 7.74026C12.4805 8.17466 12.4223 8.5939 12.3139 8.99134L12.1472 9.60249L12.6286 10.0143L17 13.7546V16H14.1538V14.5798V13.5798H13.1538H11.6875V12.7647V12.2513L11.2702 11.9521L11.1956 11.8985L10.6706 11.5221L10.1117 11.8458C9.41501 12.2493 8.60616 12.4805 7.74026 12.4805C5.12229 12.4805 3 10.3582 3 7.74026ZM7.74026 14.4805C8.41658 14.4805 9.07049 14.3806 9.6875 14.1947V14.5798V15.5798H10.6875H12.1538V17V18H13.1538H18H19V17V13.2941V12.8336L18.6501 12.5343L14.3837 8.8839C14.4474 8.51168 14.4805 8.12952 14.4805 7.74026C14.4805 4.01772 11.4628 1 7.74026 1C4.01772 1 1 4.01772 1 7.74026C1 11.4628 4.01772 14.4805 7.74026 14.4805ZM6.5 8C7.32843 8 8 7.32843 8 6.5C8 5.67157 7.32843 5 6.5 5C5.67157 5 5 5.67157 5 6.5C5 7.32843 5.67157 8 6.5 8Z" fill="inherit"/>
</svg>
