<svg width="20" height="20" viewBox="0 0 20 20" fill="none" xmlns="http://www.w3.org/2000/svg">
<path d="M4.21049 7.98425H6.90671V15.9991H4.21049V7.98425ZM5.56361 4C5.87286 4 6.17517 4.08477 6.4323 4.2436C6.68944 4.40243 6.88985 4.62818 7.00819 4.8923C7.12654 5.15642 7.1575 5.44705 7.09717 5.72744C7.03684 6.00783 6.88792 6.26538 6.66925 6.46753C6.45057 6.66968 6.17196 6.80735 5.86865 6.86312C5.56534 6.9189 5.25095 6.89027 4.96524 6.78087C4.67953 6.67147 4.43533 6.4862 4.26352 6.2485C4.0917 6.01079 4 5.73133 4 5.44545C4.00053 5.06224 4.16544 4.69487 4.45856 4.4239C4.75167 4.15294 5.14908 4.00049 5.56361 4Z" fill="#00A88E"/>
<path d="M8.60059 7.98418H11.1815V9.08309H11.2166C11.5775 8.45302 12.4545 7.79053 13.7675 7.79053C16.4938 7.79053 17 9.44909 17 11.608V15.9999H14.3088V12.1037C14.3088 11.1725 14.2937 9.97723 12.9105 9.97723C11.5073 9.97723 11.2968 10.9918 11.2968 12.0342V15.9999H8.6056V7.98511L8.60059 7.98418Z" fill="#00A88E"/>
</svg>
