<svg width="20" height="20" viewBox="0 0 20 20" fill="none" xmlns="http://www.w3.org/2000/svg">
<path fill-rule="evenodd" clip-rule="evenodd" d="M9.11312 13.7833L10.3506 15.0173L9.47294 15.8925C8.51506 16.8477 7.11892 17.2207 5.81043 16.8711C4.50194 16.5215 3.47989 15.5023 3.12929 14.1975C2.77868 12.8926 3.15277 11.5004 4.11065 10.5452L6.42758 8.25228C7.91025 6.78029 10.3072 6.78029 11.7899 8.25228L12.0795 8.54984L10.8684 9.74006L10.57 9.45126C10.1908 9.06912 9.67414 8.85409 9.13506 8.85409C8.59597 8.85409 8.07929 9.06912 7.70014 9.45126L5.3481 11.7967C4.55562 12.5918 4.55955 13.877 5.35688 14.6672C6.15421 15.4575 7.44301 15.4536 8.23549 14.6585L9.11312 13.7833ZM15.9411 4.10399C14.4584 2.632 12.0615 2.632 10.5788 4.10399L9.70119 4.97916L10.8684 6.22189L11.7461 5.34673C12.2665 4.8277 13.0252 4.625 13.7362 4.81498C14.4472 5.00495 15.0025 5.55875 15.193 6.26775C15.3835 6.97675 15.1803 7.73325 14.6598 8.25227L12.3077 10.5977C11.9286 10.9799 11.4119 11.1949 10.8728 11.1949C10.3337 11.1949 9.81705 10.9799 9.4379 10.5977L9.11318 10.2652L7.87573 11.4991L8.16535 11.7967C9.64802 13.2687 12.045 13.2687 13.5276 11.7967L15.8797 9.45125C17.3631 7.97998 17.3749 5.58972 15.906 4.10399H15.9411Z" fill="inherit"/>
</svg>
