<svg width="20" height="20" viewBox="0 0 20 20" fill="none" xmlns="http://www.w3.org/2000/svg">
<path d="M10.9069 7.97166V7.82333L10.4459 7.85499C10.3153 7.86323 10.2173 7.89099 10.1514 7.93783C10.0854 7.98511 10.0525 8.0506 10.0525 8.13431C10.0525 8.21586 10.085 8.28092 10.1505 8.32906C10.2156 8.37764 10.3032 8.40149 10.4125 8.40149C10.4823 8.40149 10.5478 8.39065 10.6081 8.3694C10.6684 8.34815 10.7213 8.31822 10.7655 8.28005C10.8098 8.24231 10.8445 8.19721 10.8692 8.14472C10.8944 8.09224 10.9069 8.03455 10.9069 7.97166ZM10 2C4.97778 2 1 5.97778 1 11C1 16.0227 4.97778 20 10 20C15.0222 20 19 16.0227 19 11C19 5.97778 15.0227 2 10 2ZM11.7471 7.33451C11.7896 7.21523 11.8494 7.11287 11.9271 7.02786C12.0047 6.94284 12.098 6.87735 12.2073 6.83137C12.3166 6.7854 12.4385 6.76241 12.5725 6.76241C12.6935 6.76241 12.8028 6.78063 12.9 6.81663C12.9975 6.85263 13.0808 6.90121 13.1507 6.96236C13.2205 7.02352 13.276 7.09465 13.3168 7.17619C13.3575 7.25774 13.3818 7.34405 13.3901 7.4347H13.0288C13.0197 7.38482 13.0032 7.33798 12.9798 7.29504C12.9563 7.2521 12.9255 7.2148 12.8874 7.18313C12.8488 7.15147 12.8037 7.12675 12.752 7.10896C12.7 7.09075 12.6419 7.08207 12.5764 7.08207C12.4996 7.08207 12.4298 7.09769 12.3678 7.12848C12.3053 7.15928 12.252 7.20308 12.2077 7.25947C12.1635 7.31586 12.1292 7.38482 12.1049 7.46549C12.0802 7.5466 12.068 7.63639 12.068 7.73528C12.068 7.83764 12.0802 7.92959 12.1049 8.01027C12.1292 8.09137 12.1639 8.15947 12.209 8.21542C12.2537 8.27137 12.3079 8.31431 12.3708 8.34381C12.4337 8.3733 12.5031 8.38848 12.5786 8.38848C12.7022 8.38848 12.8028 8.35942 12.8809 8.3013C12.9589 8.24318 13.0093 8.15817 13.0327 8.04627H13.3944C13.384 8.14516 13.3567 8.23537 13.3124 8.31692C13.2682 8.39846 13.2109 8.46786 13.1407 8.52554C13.07 8.58323 12.9871 8.6279 12.8917 8.65913C12.7963 8.69036 12.6913 8.70641 12.5773 8.70641C12.4419 8.70641 12.32 8.68386 12.2103 8.63918C12.101 8.59451 12.0069 8.52988 11.9288 8.44617C11.8507 8.36246 11.7905 8.26053 11.748 8.14039C11.7054 8.02024 11.6842 7.88535 11.6842 7.73484C11.6833 7.58781 11.7046 7.45422 11.7471 7.33451ZM6.60602 6.78713H6.96776V7.10853H6.9747C6.99682 7.05518 7.02588 7.00704 7.06145 6.9654C7.09701 6.92333 7.13778 6.88776 7.18463 6.85783C7.23104 6.8279 7.28265 6.80535 7.33817 6.78974C7.39412 6.77412 7.45311 6.76631 7.5147 6.76631C7.64742 6.76631 7.75976 6.79798 7.85084 6.8613C7.94236 6.92463 8.00742 7.01571 8.04559 7.13455H8.0547C8.07899 7.0773 8.11108 7.02612 8.15055 6.98101C8.19002 6.9359 8.23557 6.89687 8.28675 6.86477C8.33793 6.83267 8.39431 6.80839 8.45547 6.79147C8.51663 6.77455 8.58082 6.76631 8.64848 6.76631C8.74174 6.76631 8.82631 6.78106 8.90265 6.81099C8.97899 6.84092 9.04405 6.88255 9.09826 6.93677C9.15248 6.99099 9.19412 7.05692 9.22318 7.13412C9.25224 7.21133 9.26699 7.2972 9.26699 7.39176V8.68472H8.88964V7.48241C8.88964 7.35793 8.85754 7.2612 8.79335 7.19311C8.72959 7.12501 8.63807 7.09075 8.51923 7.09075C8.46111 7.09075 8.40776 7.10116 8.35918 7.12154C8.31104 7.14193 8.26896 7.17055 8.23427 7.20742C8.19913 7.24386 8.17181 7.2881 8.15229 7.33928C8.13234 7.39046 8.12236 7.44641 8.12236 7.50713V8.68472H7.75022V7.45118C7.75022 7.39653 7.74154 7.34708 7.72463 7.30284C7.70771 7.2586 7.68386 7.22087 7.65219 7.1892C7.62096 7.15754 7.58236 7.13369 7.53769 7.11677C7.49258 7.09986 7.44227 7.09118 7.38631 7.09118C7.32819 7.09118 7.27441 7.10202 7.22453 7.12371C7.17508 7.1454 7.13258 7.17533 7.09701 7.21349C7.06145 7.2521 7.03369 7.2972 7.01417 7.34969C6.99508 7.40173 6.96386 7.45899 6.96386 7.52058V8.68429H6.60602V6.78713ZM7.42708 15.8691C5.76805 15.8691 4.72752 14.7162 4.72752 12.8763C4.72752 11.0364 5.76805 9.87966 7.42708 9.87966C9.08612 9.87966 10.1227 11.0364 10.1227 12.8763C10.1227 14.7158 9.08612 15.8691 7.42708 15.8691ZM10.4988 8.67995C10.4376 8.69557 10.3752 8.70337 10.311 8.70337C10.2164 8.70337 10.1301 8.68993 10.0516 8.66304C9.97267 8.63615 9.90545 8.59841 9.84906 8.5494C9.79268 8.50039 9.74843 8.4414 9.71721 8.372C9.68554 8.3026 9.66993 8.2254 9.66993 8.14039C9.66993 7.97383 9.73195 7.84371 9.856 7.75002C9.98005 7.65634 10.1596 7.60169 10.3951 7.58651L10.9069 7.55701V7.41041C10.9069 7.30111 10.8722 7.2174 10.8028 7.16058C10.7334 7.10376 10.6354 7.07513 10.5083 7.07513C10.4572 7.07513 10.409 7.08164 10.3648 7.09422C10.3205 7.10723 10.2815 7.12545 10.2477 7.1493C10.2138 7.17316 10.1856 7.20178 10.164 7.23518C10.1418 7.26814 10.1267 7.30545 10.1184 7.34622H9.76361C9.76578 7.26251 9.7866 7.18487 9.82564 7.11374C9.86467 7.0426 9.91759 6.98101 9.98482 6.92853C10.052 6.87605 10.1306 6.83528 10.2216 6.80622C10.3127 6.77716 10.4116 6.76241 10.5187 6.76241C10.6341 6.76241 10.7387 6.77672 10.8323 6.80622C10.926 6.83571 11.0063 6.87692 11.0726 6.93113C11.139 6.98535 11.1902 7.05041 11.2262 7.12675C11.2622 7.20308 11.2804 7.28853 11.2804 7.38265V8.68429H10.9191V8.3681H10.91C10.8831 8.41928 10.8493 8.46569 10.808 8.50689C10.7664 8.5481 10.72 8.58366 10.6684 8.61272C10.6163 8.64178 10.56 8.66434 10.4988 8.67995ZM12.8856 15.8691C11.6204 15.8691 10.7603 15.2064 10.7005 14.1658H11.5241C11.5883 14.7605 12.163 15.1543 12.9503 15.1543C13.7054 15.1543 14.248 14.7605 14.248 14.2222C14.248 13.7564 13.9184 13.4749 13.1554 13.2823L12.412 13.0975C11.3433 12.8325 10.8575 12.3463 10.8575 11.5469C10.8575 10.5628 11.7172 9.87966 12.9425 9.87966C14.1396 9.87966 14.9749 10.5667 15.007 11.5547H14.1916C14.1352 10.9601 13.6494 10.5945 12.926 10.5945C12.2068 10.5945 11.7089 10.964 11.7089 11.4984C11.7089 11.92 12.0221 12.1693 12.7854 12.3619L13.4122 12.5185C14.6054 12.8078 15.0955 13.278 15.0955 14.1216C15.0951 15.1981 14.2437 15.8691 12.8856 15.8691ZM7.42708 10.6183C6.29027 10.6183 5.57937 11.4901 5.57937 12.8759C5.57937 14.2578 6.29027 15.1296 7.42708 15.1296C8.56 15.1296 9.2748 14.2578 9.2748 12.8759C9.27523 11.4901 8.56 10.6183 7.42708 10.6183Z" fill="inherit"/>
</svg>
