<svg width="20" height="20" viewBox="0 0 20 20" fill="none" xmlns="http://www.w3.org/2000/svg">
<path fill-rule="evenodd" clip-rule="evenodd" d="M5 3.99951C5 5.10446 5.8963 6 6.99932 6C8.10414 6 9 5.10401 9 3.99951C9 2.89663 8.1042 2 6.99932 2C5.89605 2 5 2.89599 5 3.99951ZM4.67315 7.25375C3.66026 6.52789 3 5.3407 3 3.99951C3 1.79155 4.79135 0 6.99932 0C9.20845 0 11 1.79174 11 3.99951C11 5.33088 10.3494 6.5105 9.34874 7.23773C10.0096 7.39428 10.6232 7.63601 11.1564 7.9856C12.182 8.65809 12.8266 9.6767 12.9697 11H17H19V13V18V20H17L8 20H6V18V15H2H1V14V14V13.9999V13.9998V13.9997V13.9996V13.9995V13.9993V13.9991V13.9989V13.9987V13.9984V13.9981V13.9979V13.9975V13.9972V13.9968V13.9965V13.996V13.9956V13.9952V13.9947V13.9942V13.9937V13.9932V13.9926V13.992V13.9914V13.9908V13.9902V13.9895V13.9888V13.9881V13.9874V13.9867V13.9859V13.9851V13.9843V13.9835V13.9826V13.9817V13.9808V13.9799V13.979V13.978V13.977V13.976V13.975V13.974V13.9729V13.9718V13.9707V13.9696V13.9684V13.9673V13.9661V13.9649V13.9636V13.9624V13.9611V13.9598V13.9585V13.9572V13.9558V13.9544V13.953V13.9516V13.9502V13.9487V13.9472V13.9457V13.9442V13.9427V13.9411V13.9395V13.9379V13.9363V13.9346V13.933V13.9313V13.9296V13.9278V13.9261V13.9243V13.9225V13.9207V13.9189V13.9171V13.9152V13.9133V13.9114V13.9095V13.9075V13.9055V13.9036V13.9016V13.8995V13.8975V13.8954V13.8933V13.8912V13.8891V13.8869V13.8848V13.8826V13.8804V13.8781V13.8759V13.8736V13.8713V13.869V13.8667V13.8643V13.862V13.8596V13.8572V13.8548V13.8523V13.8498V13.8474V13.8449V13.8423V13.8398V13.8372V13.8346V13.832V13.8294V13.8268V13.8241V13.8214V13.8187V13.816V13.8133V13.8105V13.8078V13.805V13.8021V13.7993V13.7965V13.7936V13.7907V13.7878V13.7849V13.7819V13.7789V13.776V13.773V13.7699V13.7669V13.7638V13.7607V13.7576V13.7545V13.7514V13.7482V13.7451V13.7419V13.7386V13.7354V13.7322V13.7289V13.7256V13.7223V13.719V13.7156V13.7123V13.7089V13.7055V13.7021V13.6986V13.6952V13.6917V13.6882V13.6847V13.6812V13.6776V13.6741V13.6705V13.6669V13.6633V13.6596V13.656V13.6523V13.6486V13.6449V13.6411V13.6374V13.6336V13.6298V13.626V13.6222V13.6184V13.6145V13.6106V13.6068V13.6028V13.5989V13.595V13.591V13.587V13.583V13.579V13.575V13.5709V13.5668V13.5627V13.5586V13.5545V13.5504V13.5462V13.542V13.5378V13.5336V13.5294V13.5251V13.5209V13.5166V13.5123V13.508V13.5036V13.4993V13.4949V13.4905V13.4861V13.4817V13.4772V13.4728V13.4683V13.4638V13.4593V13.4548V13.4502V13.4457V13.4411V13.4365V13.4319V13.4272V13.4226V13.4179V13.4132V13.4085V13.4038V13.3991V13.3943V13.3896V13.3848V13.38V13.3752V13.3703V13.3655V13.3606V13.3557V13.3508V13.3459V13.3409V13.336V13.331V13.326V13.321V13.316V13.311V13.3059V13.3009V13.2958V13.2907V13.2855V13.2804V13.2753V13.2701V13.2649V13.2597V13.2545V13.2492V13.244V13.2387V13.2334V13.2281V13.2228V13.2175V13.2121V13.2068V13.2014V13.196V13.1906V13.1851V13.1797V13.1742V13.1688V13.1633V13.1577V13.1522V13.1467V13.1411V13.1355V13.1299V13.1243V13.1187V13.1131V13.1074V13.1018V13.0961V13.0904V13.0846V13.0789V13.0732V13.0674V13.0616V13.0558V13.05V13.0442V13.0383V13.0325V13.0266V13.0207V13.0148V13.0089V13.0029V12.997V12.991V12.985V12.979V12.973V12.967V12.961V12.9549V12.9488V12.9427V12.9366V12.9305V12.9244V12.9182V12.912V12.9059V12.8997V12.8935V12.8872V12.881V12.8747V12.8685V12.8622V12.8559V12.8495V12.8432V12.8369V12.8305V12.8241V12.8177V12.8113V12.8049V12.7985V12.792V12.7855V12.7791V12.7726V12.7661V12.7595V12.753V12.7464V12.7399V12.7333V12.7267V12.7201V12.7134V12.7068V12.7001V12.6935V12.6868V12.6801V12.6734V12.6666V12.6599V12.6531V12.6464V12.6396V12.6328V12.626V12.6191V12.6123V12.6054V12.5986V12.5917V12.5848V12.5779V12.5709V12.564V12.557V12.5501V12.5431V12.5361V12.5291V12.522V12.515V12.5079V12.5009V12.4938V12.4867V12.4796V12.4725V12.4653V12.4582V12.451V12.4438V12.4366V12.4294V12.4222V12.415V12.4077V12.4005V12.3932V12.3859V12.3786V12.3713V12.364V12.3566V12.3493V12.3419V12.3345V12.3271V12.3197V12.3123V12.3048V12.2974V12.2899V12.2824V12.275V12.2675V12.2599V12.2524V12.2449V12.2373V12.2297V12.2222V12.2146V12.207V12.1993V12.1917V12.1841V12.1764V12.1687V12.161V12.1533V12.1456V12.1379V12.1302V12.1224V12.1146V12.1069V12.0991V12.0913V12.0835V12.0756V12.0678V12.0599V12.0521V12.0442V12.0363V12.0284V12.0205V12.0126V12.0046V11.9967V11.9887V11.9807V11.9727V11.9647V11.9567V11.9487V11.9406V11.9326V11.9245V11.9164V11.9084V11.9003V11.8921V11.884V11.8759V11.8677V11.8596V11.8514V11.8432V11.835V11.8268V11.8186V11.8103V11.8021V11.7938V11.7855V11.7773V11.769V11.7607V11.7523V11.744V11.7357V11.7273V11.7189V11.7106V11.7022V11.6938V11.6853V11.6769V11.6685V11.66V11.6516V11.6431V11.6346V11.6261V11.6176V11.6091V11.6006V11.592V11.5835V11.5749C1 9.88456 1.74911 8.66325 2.97706 7.92196C3.48611 7.61466 4.06146 7.39888 4.67315 7.25375ZM10.0597 9.65813C10.5102 9.95352 10.8322 10.3679 10.9503 11H8H6V13H3V12.997V12.991V12.985V12.979V12.973V12.967V12.961V12.9549V12.9488V12.9427V12.9366V12.9305V12.9244V12.9182V12.912V12.9059V12.8997V12.8935V12.8872V12.881V12.8747V12.8685V12.8622V12.8559V12.8495V12.8432V12.8369V12.8305V12.8241V12.8177V12.8113V12.8049V12.7985V12.792V12.7855V12.7791V12.7726V12.7661V12.7595V12.753V12.7464V12.7399V12.7333V12.7267V12.7201V12.7134V12.7068V12.7001V12.6935V12.6868V12.6801V12.6734V12.6666V12.6599V12.6531V12.6464V12.6396V12.6328V12.626V12.6191V12.6123V12.6054V12.5986V12.5917V12.5848V12.5779V12.5709V12.564V12.557V12.5501V12.5431V12.5361V12.5291V12.522V12.515V12.5079V12.5009V12.4938V12.4867V12.4796V12.4725V12.4653V12.4582V12.451V12.4438V12.4366V12.4294V12.4222V12.415V12.4077V12.4005V12.3932V12.3859V12.3786V12.3713V12.364V12.3566V12.3493V12.3419V12.3345V12.3271V12.3197V12.3123V12.3048V12.2974V12.2899V12.2824V12.275V12.2675V12.2599V12.2524V12.2449V12.2373V12.2297V12.2222V12.2146V12.207V12.1993V12.1917V12.1841V12.1764V12.1687V12.161V12.1533V12.1456V12.1379V12.1302V12.1224V12.1146V12.1069V12.0991V12.0913V12.0835V12.0756V12.0678V12.0599V12.0521V12.0442V12.0363V12.0284V12.0205V12.0126V12.0046V11.9967V11.9887V11.9807V11.9727V11.9647V11.9567V11.9487V11.9406V11.9326V11.9245V11.9164V11.9084V11.9003V11.8921V11.884V11.8759V11.8677V11.8596V11.8514V11.8432V11.835V11.8268V11.8186V11.8103V11.8021V11.7938V11.7855V11.7773V11.769V11.7607V11.7523V11.744V11.7357V11.7273V11.7189V11.7106V11.7022V11.6938V11.6853V11.6769V11.6685V11.66V11.6516V11.6431V11.6346V11.6261V11.6176V11.6091V11.6006V11.592V11.5835V11.5749C3 10.5735 3.39239 10.0074 4.01068 9.63417C4.70557 9.21468 5.76599 9 7.10193 9C8.4208 9 9.41999 9.23866 10.0597 9.65813ZM17 13V18L8 18L8 13L12.6102 16L17 13Z" fill="#00A88E"/>
</svg>
