<svg width="20" height="20" viewBox="0 0 20 20" fill="none" xmlns="http://www.w3.org/2000/svg">
<path fill-rule="evenodd" clip-rule="evenodd" d="M18.5 16.375V10H10V16.375H12.125V17.0833H11.4167V18.5H17.0833V17.0833H16.375V16.375H18.5ZM11.4167 11.4167H17.0833V14.9583H11.4167V11.4167ZM14.9583 17.0833H13.5417V16.375H14.9583V17.0833ZM3.625 8.58333H2.91667V10H8.58333V8.58333H7.875V7.875H10V1.5H1.5V7.875H3.625V8.58333ZM6.45833 8.58333H5.04167V7.875H6.45833V8.58333ZM2.91667 2.91667H8.58333V6.45833H2.91667V2.91667ZM5.75004 12.9608V10.7083H4.33337V12.9608C3.39647 13.2873 2.81012 14.2186 2.92077 15.2045C3.03141 16.1905 3.80958 16.9686 4.79554 17.0793C5.78149 17.1899 6.71279 16.6036 7.03921 15.6667H9.29171V14.25H7.03921C6.82502 13.6484 6.35164 13.175 5.75004 12.9608ZM5.04167 15.6667C4.65046 15.6667 4.33333 15.3495 4.33333 14.9583C4.33333 14.5671 4.65046 14.25 5.04167 14.25C5.43287 14.25 5.75 14.5671 5.75 14.9583C5.75 15.3495 5.43287 15.6667 5.04167 15.6667ZM14.25 7.03921V9.29171H15.6667V7.03921C16.6036 6.71279 17.1899 5.78149 17.0793 4.79554C16.9686 3.80958 16.1905 3.03141 15.2045 2.92077C14.2186 2.81012 13.2873 3.39647 12.9608 4.33337H10.7083V5.75004H12.9608C13.175 6.35164 13.6484 6.82502 14.25 7.03921ZM14.9583 4.33333C15.3495 4.33333 15.6667 4.65046 15.6667 5.04167C15.6667 5.43287 15.3495 5.75 14.9583 5.75C14.5671 5.75 14.25 5.43287 14.25 5.04167C14.25 4.65046 14.5671 4.33333 14.9583 4.33333Z" fill="#00A88E"/>
</svg>
