<svg width="20" height="20" viewBox="0 0 20 20" fill="none" xmlns="http://www.w3.org/2000/svg">
<path d="M15.9681 7H8.5V5.5H15.9681V7ZM12.7815 12.1715H15.9681V8.33562H12.7815V12.1715ZM11.7216 8.34086H8.50875L8.5 9.75619H11.7129L11.7216 8.34086ZM15.9681 13.3656H8.50875V14.8344H15.9681V13.3656ZM4.38405 15.484C4.55429 15.484 4.71755 15.4163 4.83793 15.296C4.9583 15.1756 5.02593 15.0123 5.02593 14.8421V7.98436H3.74218V14.8438C3.74264 15.0138 3.81047 15.1766 3.9308 15.2966C4.05112 15.4166 4.21412 15.484 4.38405 15.484ZM5.78323 2.5H18.5V14.8473C18.4991 15.6119 18.1949 16.345 17.6543 16.8856C17.1136 17.4263 16.3806 17.7305 15.6159 17.7314H4.3823C3.61799 17.73 2.88541 17.4256 2.34512 16.885C1.80484 16.3444 1.50092 15.6116 1.5 14.8473V7.97911H2.98663V14.8473C2.98663 15.0311 3.02282 15.213 3.09313 15.3828C3.16345 15.5525 3.26651 15.7068 3.39644 15.8367C3.52636 15.9666 3.6806 16.0697 3.85036 16.14C4.02012 16.2103 4.20206 16.2465 4.3858 16.2465C4.56955 16.2465 4.75149 16.2103 4.92124 16.14C5.091 16.0697 5.24524 15.9666 5.37517 15.8367C5.5051 15.7068 5.60816 15.5525 5.67847 15.3828C5.74879 15.213 5.78498 15.0311 5.78498 14.8473V7.97911L5.78323 2.5ZM6.90432 16.2448H15.6159C15.987 16.2448 16.3429 16.0973 16.6053 15.8349C16.8677 15.5725 17.0151 15.2167 17.0151 14.8456V3.98837H7.26811V9.46574V14.8473C7.26816 15.3366 7.14291 15.8176 6.90432 16.2448Z" fill="inherit"/>
<path d="M8.50874 10.7562H11.7216L11.7129 12.1715H8.5L8.50874 10.7562Z" fill="inherit"/>
</svg>
