<svg width="20" height="20" viewBox="0 0 20 20" fill="none" xmlns="http://www.w3.org/2000/svg">
<path fill-rule="evenodd" clip-rule="evenodd" d="M6.87307 8.125C6.87307 6.40125 8.27557 5 9.99807 5V3.75C7.58557 3.75 5.62307 5.7125 5.62307 8.125H6.87307ZM2.41686 16.2501L4.37311 13.3138V8.12508C4.37311 5.42008 6.29311 3.15633 8.84186 2.62258L8.89311 2.61258C8.96936 2.59633 9.05061 2.60008 9.12811 2.58758C9.70936 2.49633 10.2869 2.49633 10.8681 2.58758C10.9444 2.60008 11.0269 2.59633 11.1019 2.61258L11.3756 2.69008C13.8094 3.30883 15.6231 5.50008 15.6231 8.12508V13.3138L17.5794 16.2501H2.41686ZM8.23795 17.5H11.7579C11.4992 18.2262 10.8117 18.75 9.99795 18.75C9.1842 18.75 8.4967 18.2262 8.23795 17.5ZM16.8731 12.9362V8.125C16.8731 4.9725 14.7356 2.315 11.8356 1.50625C11.6644 0.65 10.9069 0 9.99813 0C9.08938 0 8.33188 0.65 8.16063 1.50625C5.26063 2.315 3.12313 4.9725 3.12313 8.125V12.9362L0.988132 16.1388C0.808132 16.4088 0.790632 16.7512 0.943132 17.0375C1.09563 17.3225 1.39188 17.5 1.71563 17.5H6.93688C7.22688 18.925 8.48938 20 9.99813 20C11.5069 20 12.7694 18.925 13.0594 17.5H18.2806C18.6044 17.5 18.9006 17.3225 19.0531 17.0375C19.2056 16.7512 19.1881 16.4088 19.0081 16.14L16.8731 12.9362Z" fill="inherit"/>
</svg>
