<svg width="20" height="20" viewBox="0 0 20 20" fill="none" xmlns="http://www.w3.org/2000/svg">
<path d="M9.21251 13.2701C7.97214 13.1407 6.85376 12.8352 5.89625 12.0863C5.77744 11.9932 5.65477 11.9034 5.54635 11.7993C5.12725 11.3968 5.08503 10.9358 5.41665 10.4607C5.70035 10.0542 6.17659 9.94544 6.6716 10.1789C6.76746 10.2241 6.85878 10.2806 6.94626 10.3412C8.73074 11.5674 11.1822 11.6012 12.9733 10.3964C13.1508 10.2603 13.3405 10.1494 13.5604 10.0927C13.9878 9.98298 14.3865 10.14 14.6159 10.514C14.878 10.9412 14.8746 11.3581 14.5517 11.6897C14.0564 12.1981 13.4606 12.5659 12.7987 12.8227C12.1728 13.0653 11.4873 13.1875 10.8088 13.2686C10.9112 13.38 10.9595 13.4348 11.0235 13.4992C11.9448 14.4248 12.8701 15.3466 13.7884 16.2752C14.1013 16.5915 14.1666 16.9838 13.9944 17.3518C13.806 17.754 13.3844 18.0186 12.971 17.9903C12.7091 17.9722 12.5048 17.8418 12.3233 17.659C11.6281 16.9594 10.9197 16.2726 10.2386 15.5598C10.0403 15.3525 9.94497 15.3917 9.77002 15.5717C9.07057 16.2917 8.35973 17.0007 7.6447 17.7057C7.32363 18.0223 6.94156 18.0792 6.56922 17.8984C6.17341 17.7066 5.92155 17.3025 5.94099 16.8965C5.95439 16.6219 6.08946 16.4121 6.27798 16.2239C7.18974 15.3135 8.09899 14.4007 9.00857 13.4888C9.06873 13.4281 9.12487 13.3638 9.21251 13.2701Z" fill="#00A88E"/>
<path d="M9.96805 10.0986C7.75525 10.0911 5.94078 8.25667 5.95368 6.04036C5.96642 3.79958 7.78207 1.99382 10.0166 2.00002C12.2557 2.00605 14.053 3.83778 14.0417 6.10186C14.0303 8.31365 12.2033 10.1063 9.96805 10.0986ZM11.9791 6.04572C11.9752 4.94527 11.0988 4.0692 10.0006 4.0682C8.89307 4.06702 8.00879 4.95901 8.01734 6.06952C8.02555 7.16578 8.90949 8.03565 10.0108 8.03162C11.1087 8.02777 11.9828 7.146 11.9791 6.04572Z" fill="#00A88E"/>
</svg>
