<svg width="20" height="20" viewBox="0 0 20 20" fill="none" xmlns="http://www.w3.org/2000/svg">
<path fill-rule="evenodd" clip-rule="evenodd" d="M10 5.75V5.75C7.51472 5.75 5.5 7.76472 5.5 10.25C5.5 12.7353 7.51472 14.75 10 14.75V14.75C12.4853 14.75 14.5 12.7353 14.5 10.25C14.5 7.76472 12.4853 5.75 10 5.75ZM10 13.25V13.25C8.34315 13.25 7 11.9069 7 10.25C7 8.59315 8.34315 7.25 10 7.25V7.25C11.6569 7.25 13 8.59315 13 10.25C13 11.9069 11.6569 13.25 10 13.25ZM10.75 10.25H12.25C12.25 11.4926 11.2426 12.5 10 12.5V12.5C8.75736 12.5 7.75 11.4926 7.75 10.25C7.75 9.00736 8.75736 8 10 8V9.5C9.58579 9.5 9.25 9.83579 9.25 10.25C9.25083 10.4504 9.33186 10.6422 9.475 10.7825C9.62143 10.9095 9.80637 10.9835 10 10.9925C10.4142 10.9925 10.75 10.6567 10.75 10.2425V10.25ZM18.8725 9.9725C17.8375 7.46 14.5 3.5 10 3.5V3.5C5.455 3.5 2.1625 7.4825 1.15 9.965L1 10.25L1.12 10.535C2.1625 13.04 5.5 17 10 17V17C14.545 17 17.8375 13.0175 18.85 10.535L19 10.25L18.8725 9.9725ZM9.99996 15.5V15.5C6.24996 15.5 3.54996 12.1325 2.64246 10.25C3.52746 8.375 6.22746 5 9.98496 5V5C13.735 5 16.435 8.3675 17.3425 10.25C16.48 12.125 13.75 15.5 9.99996 15.5Z" fill="#00A88E"/>
</svg>
