<svg width="20" height="20" viewBox="0 0 20 20" fill="none" xmlns="http://www.w3.org/2000/svg">
<path fill-rule="evenodd" clip-rule="evenodd" d="M10.0075 14.7356C7.52017 14.7356 5.50378 12.7192 5.50378 10.2319C5.50246 9.83369 5.55549 9.4372 5.66141 9.05338L7.02754 10.412C7.13188 11.9018 8.31532 13.0885 9.80484 13.1968L11.171 14.5629C10.7988 14.6622 10.4152 14.7127 10.03 14.7131L10.0075 14.7356ZM15.6297 14.8031L18.0467 17.2126L16.9808 18.2785L1.96834 3.26608L3.03422 2.2002L5.61636 4.78234C6.92995 3.94668 8.45075 3.49434 10.0075 3.47625V3.47625C14.5112 3.47625 17.844 7.43954 18.8799 9.94662L19 10.2319L18.8874 10.5171C18.1471 12.1761 17.032 13.6407 15.6297 14.7956V14.8031ZM13.0099 10.2319C13.0099 8.57364 11.6656 7.22938 10.0074 7.22938V7.22938C9.47803 7.23714 8.96011 7.38475 8.50617 7.65724L12.6121 11.7556C12.8803 11.2931 13.0178 10.7665 13.0099 10.2319ZM14.5638 13.7448C15.7364 12.7885 16.6954 11.5969 17.3786 10.2469C16.4704 8.36281 13.7381 4.99252 10.015 4.99252V4.99252C8.86526 5.00934 7.73879 5.31937 6.74233 5.89326L7.4329 6.57633C8.18364 6.0359 9.08258 5.73975 10.0075 5.72813V5.72813C11.6923 5.73029 13.235 6.6726 14.0061 8.17055C14.7772 9.66851 14.6477 11.4716 13.6706 12.844L14.5638 13.7448ZM10.0075 15.4862V15.4862C6.25436 15.4862 3.55212 12.1159 2.64386 10.2319C3.08972 9.32486 3.66914 8.48988 4.36279 7.75482L3.2969 6.68894C2.38917 7.63987 1.65498 8.74242 1.12761 9.94664L1 10.2319L1.1201 10.5171C2.16346 13.0242 5.50373 16.9875 10.0075 16.9875V16.9875C11.0192 16.9756 12.0197 16.7745 12.9574 16.3945L11.7789 15.216C11.2043 15.3901 10.6078 15.4811 10.0075 15.4862Z" fill="inherit"/>
</svg>
