<svg width="20" height="20" viewBox="0 0 20 20" fill="none" xmlns="http://www.w3.org/2000/svg">
<path d="M15.3532 5.62939C15.0864 8.10514 12.7481 9.9941 9.95297 9.99812H6.97242C6.79151 9.99812 6.63773 10.1187 6.61511 10.2795L5.60652 17.4334C5.60652 17.4374 5.60652 17.4374 5.60652 17.4414C5.60652 17.4455 5.60652 17.4455 5.60652 17.4495L5.3849 18.6311C5.36681 18.7235 5.39847 18.82 5.46631 18.8923C5.53416 18.9647 5.63818 19.0049 5.74221 19.0049H9.31525C9.49617 19.0049 9.64994 18.8843 9.67256 18.7235L10.3193 14.1418C10.3419 13.981 10.4957 13.8604 10.6766 13.8604H14.2949C15.5839 13.8604 16.8141 13.3902 17.7006 12.5623C18.5871 11.7344 19.0575 10.6171 18.9941 9.47564C18.872 7.61883 17.3885 6.0514 15.3532 5.62939Z" fill="#00A88E"/>
<path d="M4.9283 17.0714L5.89619 10.1988C5.96403 9.71651 6.42536 9.3548 6.97262 9.3548H9.95318C12.4 9.35078 14.4353 7.68286 14.6389 5.51658C14.4806 5.50452 14.3177 5.49648 14.1504 5.49648H7.7008C7.51537 5.49648 7.36159 5.61706 7.3435 5.78184L6.99524 8.4505C6.97262 8.62734 6.79171 8.75194 6.5927 8.73184C6.3937 8.71174 6.25349 8.55098 6.2761 8.37414L6.62436 5.70547C6.68768 5.21917 7.15354 4.85343 7.7008 4.85343H14.1459C14.3087 4.85343 14.4715 4.86147 14.6343 4.87353C14.4534 2.69117 12.4136 0.999136 9.94866 0.995117H3.35887C3.17343 0.995117 3.01965 1.11569 3.00156 1.28047L0.99794 16.7137C0.984372 16.8062 1.02055 16.8946 1.0884 16.9629C1.15624 17.0312 1.25574 17.0714 1.35977 17.0714H4.9283Z" fill="#00A88E"/>
</svg>
