<svg width="20" height="20" viewBox="0 0 20 20" fill="none" xmlns="http://www.w3.org/2000/svg">
<path d="M5 2.04032L5 17.9597C5 18.5403 5.44811 19 6.01415 19L13.9859 19C14.5519 19 15 18.5403 15 17.9597L15 2.04032C15 1.48387 14.5519 1 13.9859 1L6.01415 1C5.4717 1 5 1.45968 5 2.04032ZM10.8491 17.0161C10.8491 17.5 10.4717 17.8629 10.0236 17.8629C9.55189 17.8629 9.17453 17.4758 9.17453 17.0161C9.17453 16.5323 9.55189 16.1694 10.0236 16.1694C10.4717 16.1694 10.8491 16.5565 10.8491 17.0161ZM13.6792 3.75806L13.6792 15.0565L6.29717 15.0565L6.29717 3.75807L13.6792 3.75806ZM11.1321 2.04032C11.3208 2.04032 11.4623 2.18548 11.4623 2.37903C11.4623 2.57258 11.3208 2.71774 11.1321 2.71774L8.84434 2.71774C8.65566 2.71774 8.51415 2.57258 8.51415 2.37903C8.51415 2.18548 8.65566 2.04032 8.84434 2.04032L11.1321 2.04032Z" fill="#00A88E"/>
</svg>
