<svg width="20" height="20" viewBox="0 0 20 20" fill="none" xmlns="http://www.w3.org/2000/svg">
<path fill-rule="evenodd" clip-rule="evenodd" d="M9.95582 1C6.22479 1 3.2002 4.0246 3.2002 7.75563C3.2002 12.5296 9.2052 18.2644 9.43789 18.5046L9.95582 19L10.4738 18.5046C10.729 18.2644 16.7115 12.4996 16.7115 7.75563C16.7115 4.0246 13.6869 1 9.95582 1V1ZM9.95583 16.8982C8.53714 15.397 4.70145 11.141 4.70145 7.75563C4.70145 4.85372 7.05391 2.50125 9.95583 2.50125C12.8577 2.50125 15.2102 4.85372 15.2102 7.75563C15.2102 11.141 11.3745 15.427 9.95583 16.8982ZM9.95583 4.75312C8.29759 4.75312 6.95333 6.09738 6.95333 7.75562C6.95333 9.41386 8.29759 10.7581 9.95583 10.7581C11.6141 10.7581 12.9583 9.41386 12.9583 7.75562C12.9583 6.09738 11.6141 4.75312 9.95583 4.75312ZM9.95583 9.25687C9.12671 9.25687 8.45458 8.58474 8.45458 7.75562C8.45458 6.9265 9.12671 6.25437 9.95583 6.25437C10.7849 6.25437 11.4571 6.9265 11.4571 7.75562C11.4571 8.58474 10.7849 9.25687 9.95583 9.25687Z" fill="#00A88E"/>
</svg>
