<svg width="20" height="20" viewBox="0 0 20 20" fill="none" xmlns="http://www.w3.org/2000/svg">
<path fill-rule="evenodd" clip-rule="evenodd" d="M17.9972 10.2269C18.1179 5.62467 14.3792 1.89934 9.81671 2.00208C5.56336 2.09833 2.02638 5.5497 2 9.9951C2.02175 14.447 5.57909 17.9506 9.90417 17.9941C14.4435 18.04 17.887 14.4225 17.9972 10.2269ZM4.12764 7.71431C3.89858 7.99263 3.77379 8.37583 3.84369 8.83215C3.91079 9.2704 4.17133 9.5874 4.53045 9.82804C4.58922 9.86737 4.60264 9.90301 4.59199 9.9678C4.49111 10.5708 4.55405 11.1557 4.79747 11.7185C5.14362 12.5191 5.73875 13.0971 6.46252 13.5534C7.28811 14.0744 8.20394 14.3382 9.1642 14.459C10.0041 14.5645 10.8394 14.5247 11.6646 14.3382C12.852 14.0703 13.9095 13.5608 14.7235 12.6274C14.7526 12.594 14.7809 12.5604 14.8085 12.5266C15.3943 11.809 15.6496 10.9816 15.5227 10.0436C15.5047 9.91263 15.5361 9.84923 15.6379 9.77379C16.0618 9.45957 16.3191 9.05233 16.2678 8.50348C16.2173 7.96527 15.9452 7.56498 15.4524 7.34608C14.9188 7.111 14.4083 7.17717 13.9507 7.55109C13.8984 7.59367 13.8664 7.59552 13.8128 7.56035C12.964 7.00086 12.0288 6.68756 11.0204 6.58528C10.9567 6.57876 10.8929 6.57208 10.8262 6.56509C10.7747 6.55969 10.7214 6.55411 10.665 6.54826C10.7991 6.13102 10.9311 5.72035 11.0626 5.31076C11.1461 5.05111 11.2293 4.79188 11.313 4.53169C11.3304 4.53448 11.3466 4.53685 11.3621 4.53911C11.3924 4.54355 11.4197 4.54754 11.4466 4.55335C11.5948 4.58518 11.743 4.61732 11.8912 4.64945C12.2578 4.72898 12.6243 4.80849 12.9918 4.8833C13.0982 4.90505 13.1505 4.94208 13.1806 5.05407C13.3231 5.58302 13.8498 5.92038 14.382 5.83477C14.6608 5.7898 14.891 5.64754 15.0495 5.45374C15.3075 5.13891 15.3762 4.6878 15.1566 4.29687C14.873 3.79245 13.9918 3.49072 13.424 4.1511C13.4218 4.15373 13.4195 4.15627 13.4173 4.15874C13.4069 4.17016 13.3968 4.17987 13.3867 4.18797C13.345 4.22113 13.3023 4.22703 13.2385 4.21311C12.7512 4.10622 12.2635 4.00252 11.7756 3.89879C11.5939 3.86017 11.4122 3.82153 11.2305 3.78273C11.0424 3.74235 10.922 3.76422 10.8373 3.86681C10.7965 3.91593 10.764 3.98367 10.7362 4.07206C10.6557 4.32752 10.5751 4.58298 10.4945 4.83843C10.3332 5.34933 10.172 5.86022 10.0115 6.37112C10.0019 6.40174 9.99306 6.42859 9.97745 6.44856C9.95925 6.47148 9.932 6.48511 9.88427 6.48486C9.4326 6.48162 8.98742 6.54549 8.54593 6.63897C7.75412 6.80649 7.01785 7.10544 6.34822 7.5622C6.28713 7.60385 6.24965 7.58719 6.19365 7.56127C6.13149 7.53252 6.06974 7.50185 6.00792 7.47115C5.84194 7.38873 5.67551 7.30608 5.49949 7.25955C5.00613 7.12882 4.45815 7.31228 4.12764 7.71431Z" fill="inherit"/>
<path d="M12.8136 9.81461C12.8154 10.2579 12.4174 10.6545 11.9699 10.655C11.5044 10.6555 11.1235 10.264 11.123 9.7836C11.1226 9.34397 11.515 8.9594 11.9653 8.95801C12.429 8.95616 12.8112 9.34212 12.8136 9.81461Z" fill="inherit"/>
<path d="M12.1527 11.9279C12.242 12.0163 12.267 12.15 12.1698 12.2625C12.056 12.3934 11.9208 12.5156 11.7728 12.6044C11.3678 12.8479 10.9203 12.9714 10.4511 13.0145C10.3169 13.027 10.1831 13.0344 10.1008 13.0404C9.34597 13.032 8.69346 12.8617 8.11314 12.4545C8.04512 12.4068 7.98125 12.3467 7.93359 12.2796C7.84936 12.1602 7.86001 12.0139 7.94423 11.9297C8.07242 11.8006 8.23948 11.7738 8.37276 11.851C8.55185 11.9556 8.72678 12.0727 8.91698 12.1519C9.8453 12.5383 10.7412 12.4568 11.5988 11.9357C11.6478 11.9061 11.6941 11.8705 11.7436 11.8413C11.8685 11.7701 12.0287 11.8048 12.1527 11.9279Z" fill="inherit"/>
<path d="M8.98215 9.81226C8.984 10.2408 8.58092 10.6536 8.16026 10.6545C7.68268 10.6554 7.28655 10.2718 7.28516 9.80763C7.28423 9.34903 7.6725 8.95752 8.12833 8.95752C8.59018 8.95752 8.9803 9.34764 8.98215 9.81226Z" fill="inherit"/>
</svg>
