<svg width="20" height="20" viewBox="0 0 20 20" fill="none" xmlns="http://www.w3.org/2000/svg">
<path fill-rule="evenodd" clip-rule="evenodd" d="M8.06877 4.15798C4.83543 5.01628 2.92946 8.30316 3.7907 11.4874C4.65193 14.6716 7.96144 16.574 11.1948 15.7157C14.4281 14.8574 16.3341 11.5705 15.4729 8.38632C15.1052 7.02714 14.2926 5.90177 13.2289 5.12464L13.6658 6.74L11.7328 7.25313L10.3987 2.32065L15.3697 1.00108L15.8919 2.93171L14.2133 3.37729C15.7256 4.41516 16.8913 5.97051 17.4059 7.87318C18.5595 12.1384 16.0031 16.5086 11.717 17.6463C7.43083 18.7841 3.01125 16.2657 1.85764 12.0005C0.704037 7.73531 3.26046 3.36512 7.5466 2.22735L8.06877 4.15798Z" fill="#00A88E"/>
</svg>
