<svg width="20" height="20" viewBox="0 0 20 20" fill="none" xmlns="http://www.w3.org/2000/svg">
<path d="M1.15789 4.37895H7.74737V8.65263H8.90526V2.88421C8.90526 2.37895 8.50526 2 8.02105 2H0.884211C0.378947 2 0 2.4 0 2.88421V16.7579C0 17.2632 0.4 17.6421 0.884211 17.6421H3.01053V14.2105H1.15789V4.37895ZM3.41053 2.88421H5.45263C5.62105 2.88421 5.74737 3.01053 5.74737 3.17895C5.74737 3.34737 5.62105 3.47368 5.45263 3.47368H3.41053C3.24211 3.47368 3.11579 3.34737 3.11579 3.17895C3.11579 3.01053 3.26316 2.88421 3.41053 2.88421Z" fill="#00A88E"/>
<path d="M19.0948 9.979H5.24218C4.73691 9.979 4.33691 10.379 4.33691 10.8843V18.0001C4.33691 18.5053 4.73691 18.9053 5.24218 18.9053H19.0948C19.579 18.9053 20.0001 18.5053 20.0001 18.0001V10.8843C20.0001 10.4001 19.6001 9.979 19.0948 9.979ZM6.06323 15.2001C5.64218 15.2001 5.32639 14.8632 5.32639 14.4632C5.32639 14.0422 5.66323 13.7053 6.06323 13.7053C6.48428 13.7053 6.80007 14.0422 6.80007 14.4632C6.80007 14.8632 6.46323 15.2001 6.06323 15.2001ZM17.6001 17.7264H7.76849V11.1369H17.6001V17.7264ZM19.0948 15.4527C19.0948 15.6211 18.9685 15.7474 18.8001 15.7474C18.6317 15.7474 18.5053 15.6211 18.5053 15.4527V13.4106C18.5053 13.2422 18.6317 13.1158 18.8001 13.1158C18.9685 13.1158 19.0948 13.2422 19.0948 13.4106V15.4527Z" fill="#00A88E"/>
<path d="M12.5685 7.03166C12.4633 6.9264 12.4212 6.80008 12.4212 6.67377C12.4212 6.54745 12.4633 6.40008 12.5685 6.31587C12.7791 6.10535 13.0948 6.10535 13.3054 6.31587L13.7475 6.75798C13.6001 5.38956 12.4422 4.29482 11.0317 4.29482C10.737 4.29482 10.5054 4.06324 10.5054 3.7685C10.5054 3.47377 10.737 3.24219 11.0317 3.24219C13.0317 3.24219 14.6738 4.82114 14.8001 6.77903L15.3054 6.27377C15.5159 6.06324 15.8317 6.06324 16.0422 6.27377C16.2527 6.48429 16.2527 6.80008 16.0422 7.01061L14.6738 8.37903C14.4633 8.58956 14.1475 8.58956 13.9369 8.37903L12.5685 7.03166Z" fill="#00A88E"/>
</svg>
