<svg width="20" height="20" viewBox="0 0 20 20" fill="none" xmlns="http://www.w3.org/2000/svg">
<path d="M19 17.1722C19 17.3691 18.9161 17.5659 18.7762 17.7065L17.7133 18.775C17.5734 18.9156 17.4056 19 17.1818 19C16.986 19 16.7902 18.9156 16.6504 18.775L12.5664 14.6696C12.0909 14.9789 11.5594 15.2039 11.028 15.3726C10.4685 15.5413 9.90909 15.6257 9.2937 15.6257C8.42657 15.6257 7.61539 15.4569 6.83217 15.1195C6.07693 14.7821 5.4056 14.3322 4.84616 13.7698C4.25874 13.2074 3.81119 12.5325 3.5035 11.7733C3.16784 11.0141 3 10.1705 3 9.29877C3 8.42707 3.16784 7.6116 3.5035 6.85237C3.83917 6.09315 4.28671 5.41828 4.84616 4.85589C5.43357 4.2935 6.07693 3.84359 6.83217 3.50615C7.58741 3.16872 8.3986 3 9.2937 3C10.1608 3 10.972 3.16872 11.7552 3.50615C12.5105 3.84359 13.1818 4.2935 13.7413 4.85589C14.3287 5.41828 14.7762 6.09315 15.0839 6.85237C15.4196 7.6116 15.5874 8.42707 15.5874 9.29877C15.5874 9.88928 15.5035 10.4798 15.3357 11.0422C15.1678 11.6046 14.9441 12.1107 14.6364 12.5888L18.7203 16.6942C18.9161 16.8067 19 16.9754 19 17.1722ZM10.972 13.1511C11.4755 12.9262 11.9231 12.6169 12.3147 12.2513C12.7063 11.8576 12.986 11.4077 13.2098 10.9016C13.4336 10.3954 13.5455 9.83304 13.5455 9.27065C13.5455 8.68014 13.4336 8.14587 13.2098 7.63972C12.986 7.13357 12.6783 6.68366 12.3147 6.28998C11.9231 5.89631 11.4755 5.61511 10.972 5.39016C10.4685 5.1652 9.90909 5.05272 9.34965 5.05272C8.76224 5.05272 8.23077 5.1652 7.72727 5.39016C7.22377 5.61511 6.77622 5.92443 6.38462 6.28998C5.99301 6.68366 5.71328 7.13357 5.48951 7.63972C5.26573 8.14587 5.15385 8.70826 5.15385 9.27065C5.15385 9.86116 5.26573 10.3954 5.48951 10.9016C5.71328 11.4077 6.02098 11.8576 6.38462 12.2513C6.77622 12.645 7.22377 12.9262 7.72727 13.1511C8.23077 13.3761 8.79021 13.4886 9.34965 13.4886C9.90909 13.4886 10.4685 13.3761 10.972 13.1511Z" fill="#00A88E"/>
</svg>
