<svg width="20" height="20" viewBox="0 0 20 20" fill="none" xmlns="http://www.w3.org/2000/svg">
<path fill-rule="evenodd" clip-rule="evenodd" d="M8.99562 14.4912C12.0308 14.4912 14.4912 12.0308 14.4912 8.99562C14.4912 5.96047 12.0308 3.5 8.99562 3.5C5.96047 3.5 3.5 5.96047 3.5 8.99562C3.5 12.0308 5.96047 14.4912 8.99562 14.4912ZM14.3013 13.5552C15.3546 12.3307 15.9912 10.7375 15.9912 8.99562C15.9912 5.13204 12.8592 2 8.99562 2C5.13204 2 2 5.13204 2 8.99562C2 12.8592 5.13204 15.9912 8.99562 15.9912C10.5767 15.9912 12.0353 15.4667 13.2069 14.5821L17.4696 18.8448L18.5303 17.7842L14.3013 13.5552ZM8.99561 6.2478C7.47804 6.2478 6.2478 7.47804 6.2478 8.99561H4.7478C4.7478 6.64961 6.64961 4.7478 8.99561 4.7478V6.2478Z" fill="inherit"/>
</svg>
