<svg width="20" height="20" viewBox="0 0 20 20" fill="none" xmlns="http://www.w3.org/2000/svg">
<path fill-rule="evenodd" clip-rule="evenodd" d="M19 11.7654V8.23456L16.7031 7.48331C16.648 7.34307 16.588 7.20033 16.5229 7.05509L17.6113 4.89149L15.1118 2.38982L12.95 3.47913C12.8098 3.40902 12.6672 3.34891 12.5221 3.29883L11.7715 1H8.22852L7.4779 3.29883C7.33278 3.34891 7.19016 3.40902 7.05004 3.47913L4.88824 2.38982L2.38866 4.89149L3.47706 7.05509C3.41201 7.20033 3.35196 7.34307 3.29691 7.48331L1 8.23456V11.7654L3.29691 12.5167C3.34696 12.6569 3.40701 12.7997 3.47706 12.9449L2.38866 15.1085L4.88824 17.6102L7.05004 16.5209C7.19016 16.591 7.33278 16.6511 7.4779 16.7012L8.22852 19H11.7565L12.5071 16.7012C12.6522 16.6511 12.7948 16.591 12.9349 16.5209L15.0967 17.6102L17.5963 15.1085L16.5079 12.9449C16.578 12.7997 16.638 12.6569 16.6881 12.5167L19 11.7654ZM15.7798 14.8306L14.819 15.7922L12.9425 14.8606L12.6047 15.0334C12.3138 15.1877 12.0099 15.3159 11.6964 15.4165L11.3361 15.5292L10.6756 17.5125H9.30943L8.64888 15.5292L8.28858 15.4165C7.97511 15.3159 7.67117 15.1877 7.38033 15.0334L7.04255 14.8606L5.16598 15.7922L4.20518 14.8306L5.13596 12.9524L4.96331 12.6144C4.80912 12.3233 4.68101 12.0191 4.58049 11.7053L4.4679 11.3447L2.48625 10.6836V9.31636L4.4679 8.65526L4.58049 8.29466C4.68101 7.98092 4.80912 7.67673 4.96331 7.38564L5.13596 7.04758L4.20518 5.16945L5.16598 4.20784L7.04255 5.1394L7.38033 4.96661C7.67117 4.81228 7.97511 4.68407 8.28858 4.58347L8.64888 4.47078L9.30943 2.48748H10.6756L11.3361 4.47078L11.6964 4.58347C12.0099 4.68407 12.3138 4.81228 12.6047 4.96661L12.9425 5.1394L14.819 4.20784L15.7798 5.16945L14.8491 7.04758L15.0217 7.38564C15.1759 7.67673 15.304 7.98092 15.4045 8.29466L15.5171 8.65526L17.4988 9.31636V10.6836L15.5171 11.3447L15.4045 11.7053C15.304 12.0191 15.1759 12.3233 15.0217 12.6144L14.8491 12.9524L15.7798 14.8306ZM9.99251 6.99499C8.33427 6.99499 6.99001 8.34038 6.99001 10C6.99001 11.6596 8.33427 13.005 9.99251 13.005C11.6507 13.005 12.995 11.6596 12.995 10C12.995 8.34038 11.6507 6.99499 9.99251 6.99499ZM9.99251 11.5025C9.16339 11.5025 8.49126 10.8298 8.49126 9.99999C8.49126 9.17018 9.16339 8.49749 9.99251 8.49749C10.8216 8.49749 11.4938 9.17018 11.4938 9.99999C11.4938 10.8298 10.8216 11.5025 9.99251 11.5025Z" fill="#00A88E"/>
</svg>
