<svg width="20" height="20" viewBox="0 0 20 20" fill="none" xmlns="http://www.w3.org/2000/svg">
<path fill-rule="evenodd" clip-rule="evenodd" d="M5.8249 6.7H1.6999V10H1.69971V13.465H5.82471L10.2935 18.415H11.4966V10H11.4944L11.4968 10V1.75H10.2937L5.8249 6.7ZM18.5139 9.83419C18.4945 7.51869 17.5989 5.31337 15.9961 3.67139L14.8892 4.75191C16.2068 6.10179 16.9501 7.921 16.967 9.84391C16.9662 11.7434 16.2255 13.561 14.9069 14.9116L16.0138 15.9921C17.616 14.3509 18.5139 12.1439 18.5139 9.84068L18.5139 9.83419ZM15.4849 9.65469C15.4746 8.43081 15.001 7.26206 14.1504 6.39062L13.0435 7.47115C13.609 8.05049 13.9302 8.83312 13.938 9.66441C13.9372 10.4815 13.6184 11.2624 13.0521 11.8425L14.159 12.9231C15.009 12.0524 15.4849 10.882 15.4849 9.66117H15.4849L15.4849 9.65469Z" fill="inherit"/>
</svg>
