<svg width="20" height="20" viewBox="0 0 20 20" fill="none" xmlns="http://www.w3.org/2000/svg">
<path fill-rule="evenodd" clip-rule="evenodd" d="M10 10.6877L4.15119 7.29413L10 4.25404L15.8488 7.29413L14.288 8.19974L10.9606 6.57584L8.7644 7.59732L12.2595 9.37673L10 10.6877ZM17.8979 6.10519L10 2L2.10207 6.10519L0 7.1978L2.04912 8.38674L4 9.51868V13.3077V13.5205L4.08662 13.7148L5 13.3077C4.08662 13.7148 4.08692 13.7155 4.08723 13.7162L4.08786 13.7176L4.08923 13.7206L4.09235 13.7274L4.10013 13.7441C4.106 13.7565 4.11329 13.7714 4.12207 13.7888C4.13961 13.8235 4.16314 13.8679 4.19331 13.9206C4.25361 14.0258 4.34067 14.1644 4.45976 14.3247C4.69818 14.6456 5.06501 15.0538 5.6011 15.4547C6.61493 16.2129 8.1777 16.9034 10.5 16.9907V17C10.5725 17 10.6441 16.999 10.7149 16.997C10.8087 16.999 10.9038 17 11 17V16.9836C11.745 16.934 12.3919 16.7749 12.9496 16.5502L15.1648 19L18 15.5L16 13.031V9.51868L17.9509 8.38674L20 7.1978L17.8979 6.10519ZM14 10.6791L10 13L6 10.6791V13.0401C6.01867 13.0677 6.04036 13.0985 6.06524 13.132C6.20182 13.3159 6.43499 13.5809 6.7989 13.853C7.48147 14.3635 8.68468 14.9446 10.7059 14.9963C12.0448 14.9474 12.8669 14.4249 13.3629 13.9393C13.6317 13.6761 13.8141 13.4136 13.9271 13.2214C13.9562 13.172 13.9804 13.1277 14 13.0899V10.6791Z" fill="inherit"/>
</svg>
