<svg width="20" height="20" viewBox="0 0 20 20" fill="none" xmlns="http://www.w3.org/2000/svg">
<path d="M16.966 15.697C18.282 14.0901 19.0008 12.077 19 10C19 5.032 14.968 1 10 1C5.032 1 1 5.032 1 10C1 14.968 5.032 19 10 19C11.1905 19.0006 12.3692 18.7646 13.4678 18.3057C14.5663 17.8468 15.5626 17.1742 16.399 16.327C16.426 16.3 16.444 16.273 16.462 16.255C16.642 16.075 16.813 15.886 16.966 15.697ZM10 17.2C6.031 17.2 2.8 13.969 2.8 10C2.8 6.031 6.031 2.8 10 2.8C13.969 2.8 17.2 6.031 17.2 10C17.2 11.665 16.633 13.186 15.679 14.41L14.392 13.123C15.013 12.241 15.382 11.17 15.382 10.009C15.382 7.03 12.961 4.609 9.982 4.609C7.003 4.609 4.582 7.03 4.582 10.009C4.582 12.988 7.003 15.409 9.982 15.409C11.152 15.409 12.241 15.031 13.123 14.392L14.401 15.67C13.1502 16.6648 11.5981 17.2043 10 17.2ZM11.728 10.459C11.881 9.865 11.746 9.217 11.287 8.749L11.269 8.731C10.576 8.038 9.469 8.029 8.767 8.695C8.758 8.704 8.74 8.713 8.722 8.731C8.02 9.433 8.02 10.576 8.722 11.278L8.74 11.296C9.208 11.755 9.865 11.899 10.459 11.737L11.818 13.096C11.278 13.42 10.657 13.618 9.982 13.618C7.993 13.618 6.382 12.007 6.382 10.018C6.382 8.029 7.993 6.418 9.982 6.418C11.971 6.418 13.582 8.029 13.582 10.018C13.582 10.675 13.393 11.287 13.078 11.818L11.728 10.459Z" fill="#00A88E"/>
</svg>
