<svg width="20" height="20" viewBox="0 0 20 20" fill="none" xmlns="http://www.w3.org/2000/svg">
<path fill-rule="evenodd" clip-rule="evenodd" d="M18 11.5693V8.43072L15.9583 7.76294C15.9094 7.63829 15.856 7.51141 15.7982 7.3823L16.7656 5.4591L14.5438 3.23539L12.6222 4.20367C12.4976 4.14135 12.3709 4.08792 12.2419 4.04341L11.5746 2H8.42535L7.75813 4.04341C7.62914 4.08792 7.50236 4.14135 7.37782 4.20367L5.45621 3.23539L3.23436 5.4591L4.20183 7.3823C4.14401 7.51141 4.09063 7.63829 4.0417 7.76294L2 8.43072V11.5693L4.0417 12.2371C4.08618 12.3617 4.13956 12.4886 4.20183 12.6177L3.23436 14.5409L5.45621 16.7646L7.37782 15.7963C7.50236 15.8587 7.62914 15.9121 7.75813 15.9566L8.42535 18H11.5613L12.2285 15.9566C12.3575 15.9121 12.4843 15.8587 12.6088 15.7963L14.5304 16.7646L16.7523 14.5409L15.7848 12.6177C15.8471 12.4886 15.9005 12.3617 15.945 12.2371L18 11.5693ZM15.1381 14.2932L14.2841 15.148L12.616 14.3199L12.3158 14.4735C12.0572 14.6107 11.7871 14.7247 11.5084 14.8141L11.1882 14.9143L10.601 16.6772H9.38667L8.79951 14.9143L8.47925 14.8141C8.20061 14.7247 7.93044 14.6107 7.67191 14.4735L7.37166 14.3199L5.7036 15.148L4.84955 14.2932L5.67691 12.6238L5.52345 12.3233C5.38639 12.0645 5.27251 11.7941 5.18317 11.5153L5.08308 11.1947L3.32161 10.6071V9.39173L5.08308 8.80409L5.18317 8.48355C5.27251 8.20468 5.38639 7.93428 5.52345 7.67554L5.67691 7.37504L4.84955 5.70559L5.7036 4.85083L7.37166 5.67888L7.67191 5.52529C7.93044 5.38811 8.20061 5.27414 8.47925 5.18472L8.79951 5.08455L9.38667 3.32161H10.601L11.1882 5.08455L11.5084 5.18472C11.7871 5.27414 12.0572 5.38811 12.3158 5.52529L12.616 5.67888L14.2841 4.85083L15.1381 5.70559L14.3108 7.37504L14.4642 7.67554C14.6013 7.93428 14.7152 8.20468 14.8045 8.48355L14.9046 8.80409L16.6661 9.39173V10.6071L14.9046 11.1947L14.8045 11.5153C14.7152 11.7941 14.6013 12.0645 14.4642 12.3233L14.3108 12.6238L15.1381 14.2932Z" fill="#00A88E"/>
<path d="M18 11.5693L18.0464 11.7119L18.15 11.6783V11.5693H18ZM18 8.43072H18.15V8.32196L18.0466 8.28815L18 8.43072ZM15.9583 7.76294L15.8187 7.81775L15.8445 7.88354L15.9117 7.90551L15.9583 7.76294ZM15.7982 7.3823L15.6642 7.3149L15.6321 7.37857L15.6613 7.44362L15.7982 7.3823ZM16.7656 5.4591L16.8996 5.52651L16.9483 5.42972L16.8717 5.35308L16.7656 5.4591ZM14.5438 3.23539L14.6499 3.12937L14.5732 3.05261L14.4763 3.10144L14.5438 3.23539ZM12.6222 4.20367L12.5551 4.33781L12.6224 4.37152L12.6897 4.33763L12.6222 4.20367ZM12.2419 4.04341L12.0993 4.08997L12.1224 4.16087L12.1929 4.1852L12.2419 4.04341ZM11.5746 2L11.7172 1.95344L11.6835 1.85H11.5746V2ZM8.42535 2V1.85H8.31654L8.28276 1.95344L8.42535 2ZM7.75813 4.04341L7.80707 4.1852L7.87757 4.16087L7.90072 4.08997L7.75813 4.04341ZM7.37782 4.20367L7.31032 4.33763L7.37758 4.37152L7.44494 4.33781L7.37782 4.20367ZM5.45621 3.23539L5.52371 3.10144L5.4268 3.05261L5.3501 3.12937L5.45621 3.23539ZM3.23436 5.4591L3.12825 5.35308L3.05167 5.42972L3.10036 5.52651L3.23436 5.4591ZM4.20183 7.3823L4.33873 7.44362L4.36787 7.37857L4.33583 7.3149L4.20183 7.3823ZM4.0417 7.76294L4.08833 7.90551L4.15551 7.88354L4.18133 7.81775L4.0417 7.76294ZM2 8.43072L1.95337 8.28815L1.85 8.32196V8.43072H2ZM2 11.5693H1.85V11.678L1.95337 11.7119L2 11.5693ZM4.0417 12.2371L4.18298 12.1866L4.15825 12.1174L4.08833 12.0945L4.0417 12.2371ZM4.20183 12.6177L4.33583 12.6851L4.36904 12.6191L4.33694 12.5525L4.20183 12.6177ZM3.23436 14.5409L3.10036 14.4735L3.05167 14.5703L3.12825 14.6469L3.23436 14.5409ZM5.45621 16.7646L5.3501 16.8706L5.4268 16.9474L5.52371 16.8986L5.45621 16.7646ZM7.37782 15.7963L7.44494 15.6622L7.37758 15.6285L7.31032 15.6624L7.37782 15.7963ZM7.75813 15.9566L7.90072 15.91L7.87757 15.8391L7.80707 15.8148L7.75813 15.9566ZM8.42535 18L8.28276 18.0466L8.31654 18.15H8.42535V18ZM11.5613 18V18.15H11.6701L11.7039 18.0466L11.5613 18ZM12.2285 15.9566L12.1796 15.8148L12.1091 15.8391L12.0859 15.91L12.2285 15.9566ZM12.6088 15.7963L12.6763 15.6624L12.6091 15.6285L12.5417 15.6622L12.6088 15.7963ZM14.5304 16.7646L14.4629 16.8986L14.5599 16.9474L14.6366 16.8706L14.5304 16.7646ZM16.7523 14.5409L16.8584 14.6469L16.935 14.5703L16.8863 14.4735L16.7523 14.5409ZM15.7848 12.6177L15.6497 12.5525L15.6176 12.6191L15.6508 12.6851L15.7848 12.6177ZM15.945 12.2371L15.8986 12.0944L15.8285 12.1172L15.8037 12.1866L15.945 12.2371ZM15.1381 14.2932L15.2442 14.3993L15.3203 14.3231L15.2725 14.2266L15.1381 14.2932ZM14.2841 15.148L14.2174 15.2823L14.314 15.3303L14.3902 15.254L14.2841 15.148ZM12.616 14.3199L12.6827 14.1856L12.615 14.152L12.5477 14.1864L12.616 14.3199ZM12.3158 14.4735L12.2475 14.34L12.2455 14.341L12.3158 14.4735ZM11.5084 14.8141L11.5532 14.9573L11.5543 14.9569L11.5084 14.8141ZM11.1882 14.9143L11.1434 14.7711L11.0701 14.794L11.0459 14.8669L11.1882 14.9143ZM10.601 16.6772V16.8272H10.7092L10.7433 16.7246L10.601 16.6772ZM9.38667 16.6772L9.24436 16.7246L9.27853 16.8272H9.38667V16.6772ZM8.79951 14.9143L8.94183 14.8669L8.91757 14.794L8.84429 14.7711L8.79951 14.9143ZM8.47925 14.8141L8.43341 14.9569L8.43447 14.9573L8.47925 14.8141ZM7.67191 14.4735L7.74222 14.341L7.74022 14.34L7.67191 14.4735ZM7.37166 14.3199L7.43997 14.1864L7.37267 14.152L7.30496 14.1856L7.37166 14.3199ZM5.7036 15.148L5.59749 15.254L5.67371 15.3303L5.7703 15.2823L5.7036 15.148ZM4.84955 14.2932L4.71515 14.2266L4.66735 14.3231L4.74344 14.3993L4.84955 14.2932ZM5.67691 12.6238L5.81131 12.6904L5.84482 12.6228L5.8105 12.5556L5.67691 12.6238ZM5.52345 12.3233L5.65705 12.2551L5.656 12.2531L5.52345 12.3233ZM5.18317 11.5153L5.03998 11.56L5.04032 11.561L5.18317 11.5153ZM5.08308 11.1947L5.22627 11.15L5.20338 11.0767L5.13055 11.0524L5.08308 11.1947ZM3.32161 10.6071H3.17161V10.7152L3.27414 10.7494L3.32161 10.6071ZM3.32161 9.39173L3.27414 9.24944L3.17161 9.28365V9.39173H3.32161ZM5.08308 8.80409L5.13055 8.94638L5.20338 8.92208L5.22627 8.84879L5.08308 8.80409ZM5.18317 8.48355L5.04031 8.43778L5.03998 8.43884L5.18317 8.48355ZM5.52345 7.67554L5.65602 7.74576L5.65704 7.74376L5.52345 7.67554ZM5.67691 7.37504L5.8105 7.44326L5.84482 7.37605L5.81131 7.30843L5.67691 7.37504ZM4.84955 5.70559L4.74344 5.59957L4.66735 5.67573L4.71515 5.7722L4.84955 5.70559ZM5.7036 4.85083L5.7703 4.71647L5.67371 4.66853L5.59749 4.74481L5.7036 4.85083ZM7.37166 5.67888L7.30496 5.81323L7.37267 5.84685L7.43997 5.81242L7.37166 5.67888ZM7.67191 5.52529L7.74023 5.65884L7.74221 5.65779L7.67191 5.52529ZM8.47925 5.18472L8.43447 5.04155L8.43341 5.04189L8.47925 5.18472ZM8.79951 5.08455L8.84429 5.22771L8.91757 5.2048L8.94183 5.13195L8.79951 5.08455ZM9.38667 3.32161V3.17161H9.27853L9.24436 3.27422L9.38667 3.32161ZM10.601 3.32161L10.7433 3.27422L10.7092 3.17161H10.601V3.32161ZM11.1882 5.08455L11.0459 5.13195L11.0701 5.2048L11.1434 5.22771L11.1882 5.08455ZM11.5084 5.18472L11.5543 5.04189L11.5532 5.04156L11.5084 5.18472ZM12.3158 5.52529L12.2455 5.6578L12.2475 5.65883L12.3158 5.52529ZM12.616 5.67888L12.5477 5.81242L12.615 5.84685L12.6827 5.81323L12.616 5.67888ZM14.2841 4.85083L14.3902 4.74481L14.314 4.66853L14.2174 4.71647L14.2841 4.85083ZM15.1381 5.70559L15.2725 5.7722L15.3203 5.67573L15.2442 5.59957L15.1381 5.70559ZM14.3108 7.37504L14.1764 7.30843L14.1429 7.37605L14.1772 7.44326L14.3108 7.37504ZM14.4642 7.67554L14.3306 7.74377L14.3317 7.74575L14.4642 7.67554ZM14.8045 8.48355L14.9477 8.43884L14.9474 8.43779L14.8045 8.48355ZM14.9046 8.80409L14.7614 8.84879L14.7843 8.92208L14.8571 8.94638L14.9046 8.80409ZM16.6661 9.39173H16.8161V9.28365L16.7135 9.24944L16.6661 9.39173ZM16.6661 10.6071L16.7135 10.7494L16.8161 10.7152V10.6071H16.6661ZM14.9046 11.1947L14.8571 11.0524L14.7843 11.0767L14.7614 11.15L14.9046 11.1947ZM14.8045 11.5153L14.9474 11.561L14.9477 11.56L14.8045 11.5153ZM14.4642 12.3233L14.3317 12.2531L14.3306 12.2551L14.4642 12.3233ZM14.3108 12.6238L14.1772 12.5556L14.1429 12.6228L14.1764 12.6904L14.3108 12.6238ZM18.15 11.5693V8.43072H17.85V11.5693H18.15ZM18.0466 8.28815L16.0049 7.62037L15.9117 7.90551L17.9534 8.57329L18.0466 8.28815ZM16.0979 7.70813C16.0481 7.58117 15.9938 7.45212 15.9351 7.32099L15.6613 7.44362C15.7182 7.5707 15.7706 7.6954 15.8187 7.81775L16.0979 7.70813ZM15.9322 7.44971L16.8996 5.52651L16.6316 5.39169L15.6642 7.3149L15.9322 7.44971ZM16.8717 5.35308L14.6499 3.12937L14.4377 3.34141L16.6595 5.56512L16.8717 5.35308ZM14.4763 3.10144L12.5547 4.06972L12.6897 4.33763L14.6113 3.36935L14.4763 3.10144ZM12.6893 4.06953C12.559 4.00432 12.4262 3.94832 12.2908 3.90161L12.1929 4.1852C12.3156 4.22753 12.4363 4.27838 12.5551 4.33781L12.6893 4.06953ZM12.3845 3.99685L11.7172 1.95344L11.4321 2.04656L12.0993 4.08997L12.3845 3.99685ZM11.5746 1.85H8.42535V2.15H11.5746V1.85ZM8.28276 1.95344L7.61554 3.99685L7.90072 4.08997L8.56795 2.04656L8.28276 1.95344ZM7.7092 3.90161C7.57385 3.94832 7.441 4.00432 7.31069 4.06953L7.44494 4.33781C7.56372 4.27838 7.68442 4.22753 7.80707 4.1852L7.7092 3.90161ZM7.44531 4.06972L5.52371 3.10144L5.38871 3.36935L7.31032 4.33763L7.44531 4.06972ZM5.3501 3.12937L3.12825 5.35308L3.34047 5.56512L5.56232 3.34141L5.3501 3.12937ZM3.10036 5.52651L4.06783 7.44971L4.33583 7.3149L3.36836 5.39169L3.10036 5.52651ZM4.06494 7.32099C4.00621 7.45212 3.95191 7.58117 3.90207 7.70813L4.18133 7.81775C4.22935 7.6954 4.28181 7.5707 4.33873 7.44362L4.06494 7.32099ZM3.99507 7.62037L1.95337 8.28815L2.04663 8.57329L4.08833 7.90551L3.99507 7.62037ZM1.85 8.43072V11.5693H2.15V8.43072H1.85ZM1.95337 11.7119L3.99507 12.3796L4.08833 12.0945L2.04663 11.4267L1.95337 11.7119ZM3.90043 12.2875C3.94684 12.4175 4.00233 12.5493 4.06673 12.6829L4.33694 12.5525C4.27679 12.4278 4.22552 12.3059 4.18298 12.1866L3.90043 12.2875ZM4.06783 12.5503L3.10036 14.4735L3.36836 14.6083L4.33583 12.6851L4.06783 12.5503ZM3.12825 14.6469L5.3501 16.8706L5.56232 16.6586L3.34047 14.4349L3.12825 14.6469ZM5.52371 16.8986L7.44531 15.9303L7.31032 15.6624L5.38871 16.6307L5.52371 16.8986ZM7.31069 15.9305C7.441 15.9957 7.57385 16.0517 7.7092 16.0984L7.80707 15.8148C7.68442 15.7725 7.56372 15.7216 7.44494 15.6622L7.31069 15.9305ZM7.61554 16.0032L8.28276 18.0466L8.56795 17.9534L7.90072 15.91L7.61554 16.0032ZM8.42535 18.15H11.5613V17.85H8.42535V18.15ZM11.7039 18.0466L12.3711 16.0032L12.0859 15.91L11.4187 17.9534L11.7039 18.0466ZM12.2775 16.0984C12.4128 16.0517 12.5457 15.9957 12.676 15.9305L12.5417 15.6622C12.4229 15.7216 12.3022 15.7725 12.1796 15.8148L12.2775 16.0984ZM12.5413 15.9303L14.4629 16.8986L14.5979 16.6307L12.6763 15.6624L12.5413 15.9303ZM14.6366 16.8706L16.8584 14.6469L16.6462 14.4349L14.4243 16.6586L14.6366 16.8706ZM16.8863 14.4735L15.9188 12.5503L15.6508 12.6851L16.6183 14.6083L16.8863 14.4735ZM15.9199 12.6829C15.9843 12.5493 16.0398 12.4175 16.0862 12.2875L15.8037 12.1866C15.7611 12.3059 15.7099 12.4278 15.6497 12.5525L15.9199 12.6829ZM15.9913 12.3797L18.0464 11.7119L17.9536 11.4266L15.8986 12.0944L15.9913 12.3797ZM15.032 14.1872L14.178 15.042L14.3902 15.254L15.2442 14.3993L15.032 14.1872ZM14.3508 15.0136L12.6827 14.1856L12.5493 14.4543L14.2174 15.2823L14.3508 15.0136ZM12.5477 14.1864L12.2475 14.34L12.3841 14.6071L12.6843 14.4535L12.5477 14.1864ZM12.2455 14.341C11.9948 14.4741 11.7328 14.5846 11.4626 14.6713L11.5543 14.9569C11.8414 14.8648 12.1197 14.7474 12.3861 14.606L12.2455 14.341ZM11.4637 14.6709L11.1434 14.7711L11.2329 15.0574L11.5532 14.9573L11.4637 14.6709ZM11.0459 14.8669L10.4587 16.6298L10.7433 16.7246L11.3305 14.9617L11.0459 14.8669ZM10.601 16.5272H9.38667V16.8272H10.601V16.5272ZM9.52898 16.6298L8.94183 14.8669L8.6572 14.9617L9.24436 16.7246L9.52898 16.6298ZM8.84429 14.7711L8.52402 14.6709L8.43447 14.9573L8.75474 15.0574L8.84429 14.7711ZM8.52508 14.6713C8.25489 14.5846 7.99291 14.4741 7.74221 14.341L7.6016 14.606C7.86796 14.7474 8.14632 14.8648 8.43341 14.9569L8.52508 14.6713ZM7.74022 14.34L7.43997 14.1864L7.30334 14.4535L7.6036 14.6071L7.74022 14.34ZM7.30496 14.1856L5.6369 15.0136L5.7703 15.2823L7.43835 14.4543L7.30496 14.1856ZM5.80971 15.042L4.95567 14.1872L4.74344 14.3993L5.59749 15.254L5.80971 15.042ZM4.98396 14.3598L5.81131 12.6904L5.54251 12.5572L4.71515 14.2266L4.98396 14.3598ZM5.8105 12.5556L5.65704 12.2551L5.38986 12.3915L5.54332 12.692L5.8105 12.5556ZM5.656 12.2531C5.52309 12.0022 5.41266 11.7399 5.32601 11.4695L5.04032 11.561C5.13237 11.8483 5.24969 12.1269 5.3909 12.3935L5.656 12.2531ZM5.32635 11.4706L5.22627 11.15L4.9399 11.2394L5.03998 11.56L5.32635 11.4706ZM5.13055 11.0524L3.36908 10.4648L3.27414 10.7494L5.03561 11.337L5.13055 11.0524ZM3.47161 10.6071V9.39173H3.17161V10.6071H3.47161ZM3.36908 9.53402L5.13055 8.94638L5.03561 8.6618L3.27414 9.24944L3.36908 9.53402ZM5.22627 8.84879L5.32635 8.52826L5.03998 8.43884L4.9399 8.75938L5.22627 8.84879ZM5.32601 8.52932C5.41266 8.25888 5.52309 7.99667 5.656 7.74575L5.3909 7.60532C5.24969 7.8719 5.13237 8.15048 5.04032 8.43779L5.32601 8.52932ZM5.65704 7.74376L5.8105 7.44326L5.54332 7.30682L5.38986 7.60732L5.65704 7.74376ZM5.81131 7.30843L4.98396 5.63898L4.71515 5.7722L5.54251 7.44164L5.81131 7.30843ZM4.95567 5.81161L5.80971 4.95685L5.59749 4.74481L4.74344 5.59957L4.95567 5.81161ZM5.6369 4.98519L7.30496 5.81323L7.43835 5.54452L5.7703 4.71647L5.6369 4.98519ZM7.43997 5.81242L7.74022 5.65883L7.6036 5.39175L7.30335 5.54534L7.43997 5.81242ZM7.74221 5.65779C7.99291 5.52477 8.25489 5.41426 8.52508 5.32755L8.43341 5.04189C8.14632 5.13403 7.86796 5.25145 7.6016 5.39279L7.74221 5.65779ZM8.52402 5.32788L8.84429 5.22771L8.75474 4.94139L8.43447 5.04156L8.52402 5.32788ZM8.94183 5.13195L9.52898 3.36901L9.24436 3.27422L8.6572 5.03715L8.94183 5.13195ZM9.38667 3.47161H10.601V3.17161H9.38667V3.47161ZM10.4587 3.36901L11.0459 5.13195L11.3305 5.03715L10.7433 3.27422L10.4587 3.36901ZM11.1434 5.22771L11.4637 5.32788L11.5532 5.04156L11.2329 4.94139L11.1434 5.22771ZM11.4626 5.32755C11.7328 5.41426 11.9948 5.52477 12.2455 5.65779L12.3861 5.39279C12.1197 5.25145 11.8414 5.13403 11.5543 5.04189L11.4626 5.32755ZM12.2475 5.65883L12.5477 5.81242L12.6843 5.54534L12.3841 5.39175L12.2475 5.65883ZM12.6827 5.81323L14.3508 4.98519L14.2174 4.71647L12.5493 5.54452L12.6827 5.81323ZM14.178 4.95685L15.032 5.81161L15.2442 5.59957L14.3902 4.74481L14.178 4.95685ZM15.0037 5.63898L14.1764 7.30843L14.4452 7.44164L15.2725 5.7722L15.0037 5.63898ZM14.1772 7.44326L14.3306 7.74376L14.5978 7.60732L14.4444 7.30682L14.1772 7.44326ZM14.3317 7.74575C14.4646 7.99667 14.575 8.25888 14.6617 8.52932L14.9474 8.43779C14.8553 8.15048 14.738 7.8719 14.5968 7.60532L14.3317 7.74575ZM14.6613 8.52826L14.7614 8.84879L15.0478 8.75938L14.9477 8.43884L14.6613 8.52826ZM14.8571 8.94638L16.6186 9.53402L16.7135 9.24944L14.9521 8.6618L14.8571 8.94638ZM16.5161 9.39173V10.6071H16.8161V9.39173H16.5161ZM16.6186 10.4648L14.8571 11.0524L14.9521 11.337L16.7135 10.7494L16.6186 10.4648ZM14.7614 11.15L14.6613 11.4706L14.9477 11.56L15.0478 11.2394L14.7614 11.15ZM14.6617 11.4695C14.575 11.7399 14.4646 12.0022 14.3317 12.2531L14.5968 12.3935C14.738 12.1269 14.8553 11.8483 14.9474 11.561L14.6617 11.4695ZM14.3306 12.2551L14.1772 12.5556L14.4444 12.692L14.5978 12.3915L14.3306 12.2551ZM14.1764 12.6904L15.0037 14.3598L15.2725 14.2266L14.4452 12.5572L14.1764 12.6904Z" fill="#00A88E"/>
<path fill-rule="evenodd" clip-rule="evenodd" d="M9.20151 10.4762L9.20151 6.80127L10.8009 6.80127L10.8009 10.4856L12.0414 9.24517L13.0005 10.2043L10.0059 13.1989L9.20627 12.3992L9.20151 12.3992L9.20151 12.3945L7.01132 10.2043L7.97045 9.24517L9.20151 10.4762Z" fill="#00A88E"/>
</svg>
