<svg width="20" height="20" viewBox="0 0 20 20" fill="none" xmlns="http://www.w3.org/2000/svg">
<path fill-rule="evenodd" clip-rule="evenodd" d="M17 10C17 13.866 13.866 17 10 17C6.13401 17 3 13.866 3 10C3 6.13401 6.13401 3 10 3C13.866 3 17 6.13401 17 10ZM10.2503 8.16764C9.5695 8.45083 8.20875 9.03696 6.16811 9.92604C5.83674 10.0578 5.66315 10.1867 5.64735 10.3128C5.62064 10.5258 5.88742 10.6097 6.2507 10.7239C6.30011 10.7395 6.35131 10.7556 6.4038 10.7726C6.76121 10.8888 7.24198 11.0247 7.49192 11.0301C7.71864 11.035 7.97168 10.9415 8.25104 10.7497C10.1577 9.46268 11.1419 8.81215 11.2037 8.79813C11.2473 8.78823 11.3077 8.77579 11.3486 8.81217C11.3895 8.84855 11.3855 8.91745 11.3812 8.93593C11.3548 9.0486 10.3076 10.0222 9.76565 10.526C9.59671 10.683 9.47688 10.7944 9.45238 10.8199C9.3975 10.8769 9.34158 10.9308 9.28782 10.9826C8.95578 11.3027 8.70678 11.5427 9.30161 11.9347C9.58746 12.1231 9.81619 12.2789 10.0444 12.4343C10.2936 12.604 10.5422 12.7733 10.8638 12.9841C10.9457 13.0378 11.024 13.0936 11.1002 13.1479C11.3902 13.3547 11.6508 13.5404 11.9727 13.5108C12.1597 13.4936 12.3529 13.3177 12.4511 12.7931C12.683 11.5534 13.1388 8.86736 13.2441 7.7605C13.2534 7.66352 13.2417 7.53941 13.2324 7.48493C13.2231 7.43045 13.2036 7.35283 13.1328 7.29536C13.0489 7.22731 12.9195 7.21296 12.8615 7.21398C12.5983 7.21862 12.1943 7.35907 10.2503 8.16764Z" fill="inherit"/>
</svg>
