<svg width="20" height="20" viewBox="0 0 20 20" fill="none" xmlns="http://www.w3.org/2000/svg">
<path fill-rule="evenodd" clip-rule="evenodd" d="M4.64233 1.62889C6.57449 0.86256 8.86312 1.25762 10.4294 2.82388C11.6774 4.07164 12.1783 5.77857 11.945 7.39621L17.7838 13.2355L17.787 13.2382L17.8074 13.2586C19.0638 14.515 19.0642 16.5512 17.8075 17.8074C16.5515 19.0636 14.5148 19.0638 13.2589 17.808L7.39603 11.9446C5.77868 12.1785 4.07162 11.6776 2.82372 10.4293C1.25794 8.8637 0.8626 6.57474 1.62861 4.64268L2.04923 3.58179L5.82951 7.36238L7.36199 5.82988L3.58169 2.04956L4.64233 1.62889ZM6.40937 2.75593L8.63327 4.97985C9.10345 5.4498 9.1008 6.21239 8.63316 6.68003L6.67976 8.63344C6.2135 9.09852 5.45015 9.10496 4.97957 8.63378L2.75585 6.40988C2.696 7.47413 3.07253 8.55697 3.8843 9.36861C4.85895 10.3436 6.22475 10.6884 7.48278 10.4043L7.88604 10.3132L14.3196 16.7473C14.9897 17.4174 16.0764 17.4174 16.7466 16.747C17.4109 16.0831 17.4176 15.0102 16.7651 14.3379L16.789 14.3584L16.7467 14.3192C16.7529 14.3254 16.759 14.3317 16.7651 14.3379L16.7639 14.3369L10.314 7.88646L10.4048 7.48344C10.6884 6.22471 10.3435 4.8591 9.36884 3.88464C8.55664 3.07243 7.47364 2.69589 6.40937 2.75593Z" fill="#00A88E"/>
<circle cx="15" cy="15" r="1" fill="#00A88E"/>
</svg>
