<svg width="20" height="20" viewBox="0 0 20 20" fill="none" xmlns="http://www.w3.org/2000/svg">
<rect width="3" height="2" transform="matrix(1 0 0 -1 15 7.5)" fill="#00A88E"/>
<rect width="8" height="2" transform="matrix(1 0 0 -1 2 7.5)" fill="#00A88E"/>
<path fill-rule="evenodd" clip-rule="evenodd" d="M12 10C10.067 10 8.5 8.433 8.5 6.5C8.5 4.567 10.067 3 12 3C13.933 3 15.5 4.567 15.5 6.5C15.5 8.433 13.933 10 12 10ZM10.25 6.5C10.25 7.4665 11.0335 8.25 12 8.25C12.9665 8.25 13.75 7.4665 13.75 6.5C13.75 5.5335 12.9665 4.75 12 4.75C11.0335 4.75 10.25 5.5335 10.25 6.5Z" fill="#00A88E"/>
<rect x="6" y="14.5" width="4" height="2" transform="rotate(180 6 14.5)" fill="#00A88E"/>
<rect x="18" y="14.5" width="7" height="2" transform="rotate(180 18 14.5)" fill="#00A88E"/>
<path fill-rule="evenodd" clip-rule="evenodd" d="M8 17C9.933 17 11.5 15.433 11.5 13.5C11.5 11.567 9.933 10 8 10C6.067 10 4.5 11.567 4.5 13.5C4.5 15.433 6.067 17 8 17ZM9.75 13.5C9.75 14.4665 8.9665 15.25 8 15.25C7.0335 15.25 6.25 14.4665 6.25 13.5C6.25 12.5335 7.0335 11.75 8 11.75C8.9665 11.75 9.75 12.5335 9.75 13.5Z" fill="#00A88E"/>
</svg>
