<svg width="20" height="20" viewBox="0 0 20 20" fill="none" xmlns="http://www.w3.org/2000/svg">
<path d="M7.40163 16C12.6862 16 15.5767 11.767 15.5767 8.09874C15.5767 7.97986 15.5767 7.86098 15.5679 7.73786C16.13 7.34412 16.6149 6.85674 17 6.29856C16.4756 6.52447 15.9186 6.67193 15.3483 6.73587C15.9493 6.38921 16.399 5.84283 16.6134 5.19892C16.0497 5.5221 15.4332 5.75036 14.7904 5.87399C14.3571 5.42913 13.7841 5.13471 13.1602 5.03629C12.5363 4.93787 11.8962 5.04094 11.339 5.32955C10.7818 5.61815 10.3385 6.0762 10.0778 6.63282C9.81711 7.18944 9.75348 7.81359 9.89677 8.40868C8.75457 8.3535 7.63714 8.06683 6.617 7.56726C5.59685 7.06769 4.69679 6.36638 3.97521 5.50886C3.60747 6.11984 3.49453 6.84332 3.6594 7.53196C3.82426 8.2206 4.25453 8.82261 4.86257 9.21536C4.40498 9.20277 3.95734 9.08332 3.55789 8.86721V8.90118C3.55887 9.54221 3.78896 10.1632 4.20921 10.6592C4.62947 11.1551 5.21408 11.4954 5.86414 11.6227C5.44151 11.7336 4.99824 11.7496 4.56825 11.6694C4.75205 12.2209 5.10954 12.7032 5.59075 13.0488C6.07197 13.3943 6.65287 13.586 7.25227 13.5969C6.23488 14.3691 4.9789 14.7892 3.68528 14.79C3.45629 14.7899 3.22748 14.7772 3 14.7518C4.31275 15.5677 5.84084 16.0011 7.40163 16Z" fill="inherit"/>
</svg>
