<svg width="20" height="20" viewBox="0 0 20 20" fill="none" xmlns="http://www.w3.org/2000/svg">
<path fill-rule="evenodd" clip-rule="evenodd" d="M4.66667 10H15.3333H18V19H2V10H4.66667ZM10 12.5714C9.26362 12.5714 8.66667 13.1471 8.66667 13.8571V15.1429C8.66667 15.8529 9.26362 16.4286 10 16.4286C10.7364 16.4286 11.3333 15.8529 11.3333 15.1429V13.8571C11.3333 13.1471 10.7364 12.5714 10 12.5714Z" fill="#00A88E"/>
<path d="M11 3H9C7.89543 3 7 3.89543 7 5V14H5V5C5 2.79086 6.79086 1 9 1H11C13.2091 1 15 2.79086 15 5V7H13V5C13 3.89543 12.1046 3 11 3Z" fill="#00A88E"/>
</svg>
