<svg width="20" height="20" viewBox="0 0 20 20" fill="none" xmlns="http://www.w3.org/2000/svg">
<path d="M1.71801 12.9213V12.9082C1.71801 11.9629 2.43599 11.2501 3.38729 11.2501H4.91895H6.25002L7.58108 11.25H9.11446C10.0654 11.25 10.9376 11.9628 10.9376 12.908L11.4358 16.25H1.25002L1.71801 12.9213Z" fill="inherit"/>
<path fill-rule="evenodd" clip-rule="evenodd" d="M13.6456 9.14757C12.1441 9.14757 10.9259 7.93895 10.9259 6.44846C10.9259 4.95875 12.1441 3.75 13.6456 3.75C15.1478 3.75 16.3661 4.95888 16.3661 6.44846C16.3661 7.93895 15.148 9.14757 13.6456 9.14757ZM9.20827 12.0316V12.0174C9.20827 11.8055 9.23861 11.6043 9.29504 11.4186H9.38915C10.3003 11.4186 10.9876 12.1258 10.9876 13.0635L10.9897 13.0887L11.3332 15.625H8.75L9.20827 12.0316ZM9.78445 10.632L9.8385 10.625C11.084 10.625 11.9677 11.9147 11.9691 13.0411L12.3269 15.625H18.5423L18.0869 12.0447L18.0847 12.0173C18.0847 10.9969 17.3823 10.2274 16.4511 10.2274H14.9496L12.3427 10.2276H10.8429C10.4321 10.2276 10.0657 10.3772 9.78445 10.632Z" fill="inherit"/>
<path d="M6.24957 10C4.8696 10 3.75 8.8804 3.75 7.4997C3.75 6.11972 4.8696 5 6.24957 5C7.63028 5 8.75 6.11984 8.75 7.4997C8.75 8.8804 7.6304 10 6.24957 10Z" fill="inherit"/>
</svg>
