<svg width="20" height="20" viewBox="0 0 20 20" fill="none" xmlns="http://www.w3.org/2000/svg">
<path fill-rule="evenodd" clip-rule="evenodd" d="M3.98412 3.98412C3 4.96824 3 6.55215 3 9.72V10.28C3 13.4478 3 15.0317 3.98412 16.0159C4.96824 17 6.55215 17 9.72 17H10.28C13.4478 17 15.0317 17 16.0159 16.0159C17 15.0317 17 13.4478 17 10.28V9.72C17 6.55215 17 4.96824 16.0159 3.98412C15.0317 3 13.4478 3 10.28 3H9.72C6.55215 3 4.96824 3 3.98412 3.98412ZM5.36254 7.25835C5.43837 10.8983 7.25834 13.0858 10.4492 13.0858H10.6301V11.0033C11.8026 11.12 12.6891 11.9775 13.045 13.0858H14.7017C14.2467 11.4292 13.0508 10.5133 12.3041 10.1633C13.0508 9.73168 14.1008 8.68168 14.3516 7.25835H12.8466C12.5199 8.41334 11.5517 9.46334 10.6301 9.56251V7.25835H9.12501V11.295C8.19168 11.0617 7.01337 9.93001 6.96087 7.25835H5.36254Z" fill="#00A88E"/>
</svg>
