<svg width="20" height="20" viewBox="0 0 20 20" fill="none" xmlns="http://www.w3.org/2000/svg">
<path fill-rule="evenodd" clip-rule="evenodd" d="M10 1C5.02944 1 1 5.02944 1 10C1 14.9706 5.02944 19 10 19C14.9706 19 19 14.9706 19 10C19 5.02944 14.9706 1 10 1ZM16.87 7.00009H14.9575C14.7234 5.74276 14.2689 4.53671 13.615 3.43759C15.0604 4.23719 16.2038 5.48859 16.87 7.00009V7.00009ZM17.5001 10.0001C17.4996 10.5038 17.4493 11.0062 17.3501 11.5001H15.1751C15.2201 11.0126 15.2501 10.5101 15.2501 10.0001C15.2501 9.49009 15.2501 8.98759 15.1751 8.50009H17.3501C17.4493 8.99393 17.4996 9.49637 17.5001 10.0001ZM2.49994 10.0001C2.50044 9.49637 2.55068 8.99393 2.64994 8.50009H4.82494C4.77994 8.98759 4.74994 9.49009 4.74994 10.0001C4.74994 10.5101 4.74994 11.0126 4.82494 11.5001H2.64994C2.55068 11.0062 2.50044 10.5038 2.49994 10.0001V10.0001ZM6.25006 10.0001C6.25075 9.49898 6.27829 8.99826 6.33256 8.50009H9.25006V11.5001H6.33256C6.27829 11.0019 6.25075 10.5012 6.25006 10.0001V10.0001ZM10.7501 2.65756C11.9351 3.16006 12.9326 4.82506 13.4201 7.00006H10.7501V2.65756ZM9.25002 2.65756V7.00006H6.58002C7.06752 4.82506 8.06502 3.16006 9.25002 2.65756ZM9.25002 13.0001V17.3426C8.06502 16.8401 7.06752 15.1751 6.58002 13.0001H9.25002ZM10.7501 17.3426V13.0001H13.4201C12.9326 15.1751 11.9351 16.8401 10.7501 17.3426ZM10.7501 11.5001V8.50009H13.6676C13.7775 9.49707 13.7775 10.5031 13.6676 11.5001H10.7501ZM6.38504 3.43759C5.73112 4.53671 5.27663 5.74276 5.04254 7.00009H3.13004C3.79627 5.48859 4.93966 4.23719 6.38504 3.43759V3.43759ZM3.13004 13.0001H5.04254C5.27663 14.2574 5.73112 15.4635 6.38504 16.5626C4.93966 15.763 3.79627 14.5116 3.13004 13.0001V13.0001ZM13.63 16.5626C14.2839 15.4635 14.7384 14.2574 14.9725 13.0001H16.885C16.2149 14.5139 15.066 15.7656 13.615 16.5626H13.63Z" fill="#00A88E"/>
</svg>
