<svg width="20" height="20" viewBox="0 0 20 20" fill="none" xmlns="http://www.w3.org/2000/svg">
<path d="M17.3518 7.15712C17.3518 7.15712 17.2051 6.17512 16.7557 5.74632C16.1854 5.18003 15.5461 5.17741 15.2533 5.14403C13.1541 5 10.0059 5 10.0059 5H9.99687C9.99687 5 6.84871 5 4.74948 5.14403C4.45595 5.17676 3.81741 5.17938 3.24635 5.74632C2.79701 6.17774 2.65024 7.15712 2.65024 7.15712C2.55679 7.92111 2.50664 8.68925 2.5 9.45827V10.5372C2.50662 11.3062 2.55677 12.0743 2.65024 12.8383C2.65024 12.8383 2.79631 13.8203 3.24635 14.2491C3.81741 14.8154 4.56793 14.7977 4.90042 14.8566C6.10028 14.966 10.0003 15 10.0003 15C10.0003 15 13.152 14.9954 15.2512 14.8514C15.5441 14.818 16.1833 14.8154 16.7537 14.2491C17.203 13.8177 17.3498 12.8383 17.3498 12.8383C17.4432 12.0743 17.4934 11.3062 17.5 10.5372V9.45827C17.4941 8.68929 17.4446 7.92115 17.3518 7.15712ZM8.4534 11.8445V7.85106L12.5058 9.85499L8.4534 11.8445Z" fill="inherit"/>
</svg>
